<?xml version="1.0" encoding="utf-8"?>
<svg xmlns="http://www.w3.org/2000/svg" fill="none" height="100%" overflow="visible" preserveAspectRatio="none" style="display: block;" viewBox="0 0 25.1533 29.3335" width="100%">
<path d="M15.233 1.49879C15.3064 0.911456 14.9839 0.346031 14.4409 0.110339C13.8979 -0.125352 13.2646 0.0251165 12.8857 0.479829L0.979726 14.767C0.773972 15.0138 0.56557 15.2638 0.413835 15.4834C0.270335 15.6912 0.00832341 16.0997 0.000227863 16.6366C-0.00904006 17.2512 0.264841 17.836 0.742943 18.2223C1.16056 18.5598 1.64212 18.62 1.89359 18.6428C2.15949 18.6669 2.48494 18.6668 2.80626 18.6667L11.0663 18.6667L9.92027 27.8347C9.84685 28.422 10.1694 28.9875 10.7124 29.2231C11.2553 29.4588 11.8887 29.3084 12.2676 28.8537L24.1735 14.5665C24.3793 14.3197 24.5877 14.0697 24.7394 13.85C24.8829 13.6423 25.145 13.2338 25.1531 12.6969C25.1623 12.0823 24.8884 11.4975 24.4103 11.1112C23.9927 10.7737 23.5112 10.7135 23.2597 10.6907C22.9938 10.6666 22.6683 10.6667 22.347 10.6667L14.087 10.6667L15.233 1.49879Z" fill="var(--fill-0, #00DBF1)" id="Solid"/>
</svg>