<?xml version="1.0" encoding="utf-8"?>
<svg xmlns="http://www.w3.org/2000/svg" fill="none" height="100%" overflow="visible" preserveAspectRatio="none" style="display: block;" viewBox="0 0 26.667 27.6442" width="100%">
<path clip-rule="evenodd" d="M14.0304 0.0926801C13.574 -0.0308934 13.093 -0.0308934 12.6366 0.0926801C12.1068 0.236133 11.6607 0.586338 11.3047 0.865844L11.2052 0.943734L2.05851 8.0577C1.55634 8.44741 1.11392 8.79075 0.78424 9.23648C0.494917 9.62766 0.279389 10.0683 0.148241 10.5369C-0.0012002 11.0708 -0.000595089 11.6308 9.18743e-05 12.2664L0.000184699 22.0956C0.000160857 22.7984 0.000140193 23.4048 0.0409452 23.9042C0.0840132 24.4314 0.179101 24.9556 0.43616 25.4601C0.819653 26.2128 1.43158 26.8247 2.18422 27.2082C2.68873 27.4653 3.21302 27.5604 3.74015 27.6034C4.23957 27.6442 4.84591 27.6442 5.54876 27.6442H21.1183C21.8211 27.6442 22.4275 27.6442 22.9269 27.6034C23.454 27.5604 23.9783 27.4653 24.4828 27.2082C25.2355 26.8247 25.8474 26.2128 26.2309 25.4601C26.4879 24.9556 26.583 24.4314 26.6261 23.9042C26.6669 23.4048 26.6669 22.7985 26.6669 22.0956L26.6669 12.2664C26.6676 11.6308 26.6682 11.0708 26.5188 10.5369C26.3877 10.0683 26.1721 9.62766 25.8828 9.23648C25.5531 8.79074 25.1107 8.44741 24.6085 8.05769L15.4618 0.943735L15.3623 0.86585C15.0063 0.586342 14.5603 0.236134 14.0304 0.0926801ZM8.0002 19.6442C7.26382 19.6442 6.66687 20.2412 6.66687 20.9775C6.66687 21.7139 7.26382 22.3109 8.0002 22.3109H18.6669C19.4033 22.3109 20.0002 21.7139 20.0002 20.9775C20.0002 20.2412 19.4033 19.6442 18.6669 19.6442H8.0002Z" fill="var(--fill-0, #00DBF1)" fill-rule="evenodd" id="Solid"/>
</svg>