<?xml version="1.0" encoding="utf-8"?>
<svg xmlns="http://www.w3.org/2000/svg" fill="none" height="100%" overflow="visible" preserveAspectRatio="none" style="display: block;" viewBox="0 0 29.3333 26.2247" width="100%">
<path clip-rule="evenodd" d="M3.34028 2.06881C6.92335 -0.992644 11.5373 -0.434702 14.6572 2.29181C17.7735 -0.43574 22.3382 -0.954118 25.9612 2.05712C29.926 5.35245 30.4021 10.9725 27.3491 14.9012C26.289 16.2653 24.3165 18.2462 22.3393 20.1317C20.34 22.0383 18.2618 23.9167 16.939 25.0972L16.9097 25.1233C16.6929 25.3168 16.4761 25.5103 16.2763 25.6618C16.0516 25.8322 15.7758 26.0075 15.4239 26.1131C14.9277 26.2619 14.3877 26.2619 13.8915 26.1131C13.5396 26.0075 13.2638 25.8322 13.0391 25.6618C12.8393 25.5103 12.6226 25.3169 12.4058 25.1234L12.3764 25.0972C11.0536 23.9167 8.97538 22.0383 6.97604 20.1317C4.99886 18.2462 3.02636 16.2653 1.96628 14.9012C-1.09854 10.9574 -0.535436 5.38031 3.34028 2.06881ZM14.5984 8.24757C14.4279 7.73596 13.9659 7.37746 13.428 7.33923C12.8901 7.301 12.3821 7.59057 12.1409 8.07292L10.5095 11.3359H10.0002C9.26378 11.3359 8.66683 11.9328 8.66683 12.6692C8.66683 13.4056 9.26378 14.0025 10.0002 14.0025H11.3335C11.8385 14.0025 12.3002 13.7172 12.5261 13.2655L13.0865 12.1446L14.7353 17.0908C14.9058 17.6025 15.3677 17.961 15.9056 17.9992C16.4436 18.0374 16.9516 17.7478 17.1927 17.2655L18.8242 14.0025H19.3335C20.0699 14.0025 20.6668 13.4056 20.6668 12.6692C20.6668 11.9328 20.0699 11.3359 19.3335 11.3359H18.0002C17.4951 11.3359 17.0335 11.6212 16.8076 12.0729L16.2472 13.1938L14.5984 8.24757Z" fill="var(--fill-0, #00DBF1)" fill-rule="evenodd" id="Solid"/>
</svg>