<?xml version="1.0" encoding="utf-8"?>
<svg xmlns="http://www.w3.org/2000/svg" fill="none" height="100%" overflow="visible" preserveAspectRatio="none" style="display: block;" viewBox="0 0 29.3339 29.4282" width="100%">
<g id="Solid">
<path clip-rule="evenodd" d="M6.18138 0.390524C6.70208 0.911223 6.70208 1.75544 6.18138 2.27614C1.65356 6.80396 1.50046 14.0501 5.72202 18.7615H13.3336V10.7615C13.3336 10.0251 13.9306 9.42818 14.667 9.42818C15.4033 9.42818 16.0003 10.0251 16.0003 10.7615V18.7615H23.6119C27.8335 14.0501 27.6804 6.80396 23.1525 2.27614C22.6318 1.75544 22.6318 0.911223 23.1525 0.390524C23.6732 -0.130175 24.5175 -0.130175 25.0382 0.390524C30.1093 5.4617 30.6906 13.3224 26.7819 19.0332C26.8094 19.0437 26.8369 19.0546 26.8644 19.066C27.8445 19.472 28.6232 20.2507 29.0292 21.2308C29.2092 21.6654 29.2752 22.1052 29.3052 22.545C29.3337 22.9627 29.3336 23.4673 29.3336 24.0522V24.1375C29.3336 24.7224 29.3337 25.227 29.3052 25.6447C29.2752 26.0845 29.2092 26.5243 29.0292 26.9589C28.6232 27.939 27.8445 28.7177 26.8644 29.1237C26.4298 29.3037 25.9899 29.3697 25.5501 29.3997C25.1325 29.4282 24.6279 29.4282 24.0431 29.4282H5.29098C4.70617 29.4282 4.20143 29.4282 3.78379 29.3997C3.34401 29.3697 2.90413 29.3037 2.46956 29.1237C1.48945 28.7177 0.710754 27.939 0.304778 26.9589C0.124773 26.5243 0.058768 26.0845 0.0287627 25.6447C0.000264984 25.227 0.000279111 24.7224 0.000295482 24.1375L0.000295482 24.0522C0.000279111 23.4674 0.000264984 22.9627 0.0287627 22.545C0.058768 22.1052 0.124773 21.6654 0.304778 21.2308C0.710754 20.2507 1.48945 19.472 2.46956 19.066C2.49702 19.0546 2.52451 19.0437 2.55201 19.0332C-1.35668 13.3224 -0.775413 5.4617 4.29577 0.390524C4.81647 -0.130175 5.66069 -0.130175 6.18138 0.390524Z" fill="var(--fill-0, #00DBF1)" fill-rule="evenodd"/>
<path d="M9.95292 6.04743C10.4736 5.52673 10.4736 4.68251 9.95292 4.16181C9.43222 3.64111 8.588 3.64111 8.0673 4.16181C4.4224 7.8067 4.4224 13.7162 8.0673 17.3611C8.588 17.8818 9.43222 17.8818 9.95292 17.3611C10.4736 16.8404 10.4736 15.9962 9.95292 15.4755C7.34942 12.872 7.34942 8.65092 9.95292 6.04743Z" fill="var(--fill-0, #00DBF1)"/>
<path d="M21.2667 4.16181C20.746 3.64111 19.9018 3.64111 19.3811 4.16181C18.8604 4.68251 18.8604 5.52673 19.3811 6.04743C21.9846 8.65092 21.9846 12.872 19.3811 15.4755C18.8604 15.9962 18.8604 16.8404 19.3811 17.3611C19.9018 17.8818 20.746 17.8818 21.2667 17.3611C24.9116 13.7162 24.9116 7.8067 21.2667 4.16181Z" fill="var(--fill-0, #00DBF1)"/>
</g>
</svg>