<?xml version="1.0" encoding="utf-8"?>
<svg xmlns="http://www.w3.org/2000/svg" fill="none" height="100%" overflow="visible" preserveAspectRatio="none" style="display: block;" viewBox="0 0 28.1618 28.1618" width="100%">
<path clip-rule="evenodd" d="M9.49509 9.33333C9.49509 4.17868 13.6738 0 18.8284 0C19.9266 0 20.9832 0.190221 21.9653 0.540628C22.3959 0.694243 22.7177 1.05772 22.8181 1.5037C22.9184 1.94968 22.7833 2.41599 22.4601 2.73923L19.4687 5.76237C19.0444 6.19111 18.8323 6.40548 18.7324 6.643C18.5922 6.97613 18.5932 7.35189 18.7353 7.68422C18.8366 7.92117 19.0499 8.13433 19.4766 8.56067C19.9041 8.9878 20.1178 9.20137 20.3552 9.30249C20.6882 9.44432 21.0645 9.44471 21.3977 9.30355C21.6353 9.20291 21.8495 8.98978 22.2778 8.56351L25.3499 5.50627C25.6687 5.18742 26.1271 5.05133 26.5683 5.14454C27.0095 5.23776 27.3737 5.54764 27.5363 5.96822C27.9407 7.01395 28.1618 8.1494 28.1618 9.33333C28.1618 14.488 23.9831 18.6667 18.8284 18.6667C18.0666 18.6667 17.3243 18.5751 16.6127 18.4018C16.2753 18.3196 16.062 18.2679 15.906 18.2365C15.8772 18.2307 15.8536 18.2263 15.8347 18.2231C15.8297 18.2275 15.8242 18.2323 15.8183 18.2377C15.7354 18.3125 15.6267 18.4206 15.435 18.6124L7.10457 26.9428C5.4793 28.5681 2.84422 28.5681 1.21895 26.9428C-0.406317 25.3175 -0.406317 22.6825 1.21895 21.0572L9.54937 12.7268C9.74113 12.535 9.84926 12.4263 9.92408 12.3435C9.94491 12.3204 9.93305 12.2946 9.92524 12.2557C9.89389 12.0998 9.84219 11.8864 9.75999 11.549C9.58665 10.8375 9.49509 10.0952 9.49509 9.33333Z" fill="var(--fill-0, #00DBF1)" fill-rule="evenodd" id="Solid"/>
</svg>