<?xml version="1.0" encoding="utf-8"?>
<svg xmlns="http://www.w3.org/2000/svg" fill="none" height="100%" overflow="visible" preserveAspectRatio="none" style="display: block;" viewBox="0 0 26.6667 29.3333" width="100%">
<path clip-rule="evenodd" d="M20 1.33333C20 0.596954 19.403 0 18.6667 0C17.9303 0 17.3333 0.596954 17.3333 1.33333V2.66667H9.33333V1.33333C9.33333 0.596954 8.73638 0 8 0C7.26362 0 6.66667 0.596954 6.66667 1.33333V2.66884C6.03271 2.67319 5.47865 2.68629 4.99757 2.72559C4.2481 2.78683 3.55917 2.91825 2.91205 3.24797C1.90852 3.75929 1.09263 4.57519 0.581301 5.57872C0.25158 6.22583 0.120161 6.91477 0.058927 7.66423C-2.86301e-05 8.38582 -1.54476e-05 9.27164 5.2343e-07 10.3449V21.6551C-1.54476e-05 22.7284 -2.86301e-05 23.6142 0.058927 24.3358C0.120161 25.0852 0.25158 25.7742 0.581301 26.4213C1.09263 27.4248 1.90852 28.2407 2.91205 28.752C3.55917 29.0818 4.2481 29.2132 4.99757 29.2744C5.71915 29.3334 6.60496 29.3334 7.67824 29.3333H18.9884C20.0617 29.3334 20.9475 29.3334 21.6691 29.2744C22.4186 29.2132 23.1075 29.0818 23.7546 28.752C24.7581 28.2407 25.574 27.4248 26.0854 26.4213C26.4151 25.7742 26.5465 25.0852 26.6077 24.3358C26.6667 23.6142 26.6667 22.7284 26.6667 21.6551V10.3449C26.6667 9.27162 26.6667 8.38582 26.6077 7.66423C26.5465 6.91477 26.4151 6.22583 26.0854 5.57872C25.574 4.57519 24.7581 3.75929 23.7546 3.24797C23.1075 2.91825 22.4186 2.78683 21.6691 2.72559C21.188 2.68629 20.634 2.67319 20 2.66884V1.33333ZM6.66667 6.66667V5.33568C6.07263 5.33986 5.60617 5.35142 5.21472 5.3834C4.63017 5.43116 4.33123 5.51773 4.12269 5.62398C3.62093 5.87965 3.21298 6.28759 2.95732 6.78936C2.85107 6.99789 2.7645 7.29683 2.71674 7.88138C2.66771 8.4815 2.66667 9.2579 2.66667 10.4V10.6667H24V10.4C24 9.2579 23.999 8.4815 23.9499 7.88139C23.9022 7.29683 23.8156 6.99789 23.7093 6.78936C23.4537 6.28759 23.0457 5.87965 22.544 5.62398C22.3354 5.51773 22.0365 5.43116 21.4519 5.3834C21.0605 5.35142 20.594 5.33986 20 5.33568V6.66667C20 7.40305 19.403 8 18.6667 8C17.9303 8 17.3333 7.40305 17.3333 6.66667V5.33333H9.33333V6.66667C9.33333 7.40305 8.73638 8 8 8C7.26362 8 6.66667 7.40305 6.66667 6.66667ZM13.9625 14.8244C14.396 15.0565 14.6666 15.5083 14.6666 16V21.3333H15C15.7364 21.3333 16.3333 21.9303 16.3333 22.6667C16.3333 23.403 15.7364 24 15 24H11.6667C10.9303 24 10.3333 23.403 10.3333 22.6667C10.3333 21.9303 10.9303 21.3333 11.6667 21.3333H12V18.4881C11.396 18.8376 10.6164 18.6616 10.2239 18.0729C9.81544 17.4602 9.98101 16.6324 10.5937 16.2239L12.5937 14.8906C13.0029 14.6178 13.5289 14.5924 13.9625 14.8244Z" fill="var(--fill-0, #FEE300)" fill-rule="evenodd" id="Solid"/>
</svg>