<?xml version="1.0" encoding="utf-8"?>
<svg xmlns="http://www.w3.org/2000/svg" fill="none" height="100%" overflow="visible" preserveAspectRatio="none" style="display: block;" viewBox="0 0 26.667 27.6442" width="100%">
<path clip-rule="evenodd" d="M14.0304 0.0926801C13.574 -0.0308934 13.093 -0.0308934 12.6366 0.0926801C12.1068 0.236133 11.6607 0.586338 11.3047 0.865844L11.2052 0.943734L2.05851 8.0577C1.55634 8.44741 1.11392 8.79075 0.78424 9.23648C0.494917 9.62766 0.279389 10.0683 0.148241 10.5369C-0.0012002 11.0708 -0.000595089 11.6308 9.18743e-05 12.2664L0.000184699 22.0956C0.000160857 22.7984 0.000140193 23.4048 0.0409452 23.9042C0.0840132 24.4314 0.179101 24.9556 0.43616 25.4601C0.819653 26.2128 1.43158 26.8247 2.18422 27.2082C2.68873 27.4653 3.21302 27.5604 3.74015 27.6034C4.23957 27.6442 4.84591 27.6442 5.54876 27.6442H21.1183C21.8211 27.6442 22.4275 27.6442 22.9269 27.6034C23.454 27.5604 23.9783 27.4653 24.4828 27.2082C25.2355 26.8247 25.8474 26.2128 26.2309 25.4601C26.4879 24.9556 26.583 24.4314 26.6261 23.9042C26.6669 23.4048 26.6669 22.7985 26.6669 22.0956L26.6669 12.2664C26.6676 11.6308 26.6682 11.0708 26.5188 10.5369C26.3877 10.0683 26.1721 9.62766 25.8828 9.23648C25.5531 8.79074 25.1107 8.44741 24.6085 8.05769L15.4618 0.943735L15.3623 0.86585C15.0063 0.586342 14.5603 0.236134 14.0304 0.0926801ZM9.45946 16.6452C9.27591 15.9321 8.549 15.5027 7.83587 15.6863C7.12273 15.8698 6.69341 16.5967 6.87696 17.3099C7.61696 20.185 10.2253 22.3109 13.3335 22.3109C16.4417 22.3109 19.0501 20.185 19.7901 17.3099C19.9736 16.5967 19.5443 15.8698 18.8312 15.6863C18.118 15.5027 17.3911 15.9321 17.2076 16.6452C16.7635 18.3707 15.1955 19.6442 13.3335 19.6442C11.4715 19.6442 9.90358 18.3707 9.45946 16.6452Z" fill="var(--fill-0, #00DBF1)" fill-rule="evenodd" id="Solid"/>
</svg>