<?xml version="1.0" encoding="utf-8"?>
<svg xmlns="http://www.w3.org/2000/svg" fill="none" height="100%" overflow="visible" preserveAspectRatio="none" style="display: block;" viewBox="0 0 29.3333 26.6667" width="100%">
<path clip-rule="evenodd" d="M21.6551 5.49255e-07H7.67827C6.60499 -1.59438e-05 5.71916 -2.9554e-05 4.99757 0.0589265C4.2481 0.12016 3.55917 0.251579 2.91205 0.5813C1.90852 1.09262 1.09262 1.90852 0.5813 2.91205C0.251579 3.55917 0.12016 4.2481 0.0589265 4.99757C-2.9544e-05 5.71916 -1.594e-05 6.60496 5.49055e-07 7.67825V13.6551C-1.594e-05 14.7284 -2.9544e-05 15.6142 0.0589265 16.3358C0.12016 17.0852 0.251579 17.7742 0.5813 18.4213C1.09262 19.4248 1.90852 20.2407 2.91205 20.752C3.55917 21.0818 4.2481 21.2132 4.99757 21.2744C5.71916 21.3334 6.60498 21.3333 7.67827 21.3333H13.3333V24H9.33333C8.59695 24 8 24.597 8 25.3333C8 26.0697 8.59695 26.6667 9.33333 26.6667H20C20.7364 26.6667 21.3333 26.0697 21.3333 25.3333C21.3333 24.597 20.7364 24 20 24H16V21.3333H21.655C22.7283 21.3333 23.6142 21.3334 24.3358 21.2744C25.0852 21.2132 25.7742 21.0818 26.4213 20.752C27.4248 20.2407 28.2407 19.4248 28.752 18.4213C29.0818 17.7742 29.2132 17.0852 29.2744 16.3358C29.3334 15.6142 29.3334 14.7284 29.3333 13.6551V7.67824C29.3334 6.60496 29.3334 5.71915 29.2744 4.99757C29.2132 4.2481 29.0818 3.55917 28.752 2.91205C28.2407 1.90852 27.4248 1.09262 26.4213 0.5813C25.7742 0.251579 25.0852 0.12016 24.3358 0.0589265C23.6142 -2.9554e-05 22.7283 -1.59438e-05 21.6551 5.49255e-07Z" fill="var(--fill-0, #A7FF5B)" fill-rule="evenodd" id="Solid"/>
</svg>