<?xml version="1.0" encoding="utf-8"?>
<svg xmlns="http://www.w3.org/2000/svg" fill="none" height="100%" overflow="visible" preserveAspectRatio="none" style="display: block;" viewBox="0 0 29.3333 26.6695" width="100%">
<path clip-rule="evenodd" d="M14.4832 6.29556e-05C13.4227 -0.000511315 12.6352 -0.00093776 11.953 0.181858C10.1125 0.675016 8.6749 2.1126 8.18174 3.95309C8.0719 4.36302 8.02822 4.81097 8.01097 5.33333H7.67827C6.60499 5.33332 5.71916 5.3333 4.99757 5.39226C4.24811 5.45349 3.55917 5.58491 2.91205 5.91463C1.90852 6.42596 1.09263 7.24185 0.581302 8.24539C0.251581 8.8925 0.120162 9.58144 0.0589281 10.3309C-2.65638e-05 11.0525 -1.43418e-05 11.9383 4.67451e-07 13.0115V18.9884C-1.43418e-05 20.0617 -2.65688e-05 20.9475 0.0589281 21.6691C0.120162 22.4186 0.251581 23.1075 0.581302 23.7546C1.09263 24.7581 1.90852 25.574 2.91205 26.0854C3.55917 26.4151 4.24811 26.5465 4.99757 26.6077C5.64085 26.6603 6.28721 26.6696 6.93334 26.6695C7.30673 26.6695 7.49342 26.6695 7.63602 26.5968C7.76146 26.5329 7.86343 26.4309 7.92734 26.3055C8 26.1629 8 25.9753 8 25.6L8 9.33333C8 8.59695 8.59695 8 9.33333 8C10.0697 8 10.6667 8.59695 10.6667 9.33333L10.6667 25.6C10.6667 25.9734 10.6667 26.1601 10.7393 26.3027C10.8032 26.4281 10.9052 26.5301 11.0307 26.594C11.1733 26.6667 11.36 26.6667 11.7333 26.6667H17.6C17.9734 26.6667 18.1601 26.6667 18.3027 26.594C18.4281 26.5301 18.5301 26.4281 18.594 26.3027C18.6667 26.1601 18.6667 25.9734 18.6667 25.6V24C18.6667 23.2636 19.2636 22.6667 20 22.6667C20.7364 22.6667 21.3333 23.2636 21.3333 24V25.6C21.3333 25.9753 21.3333 26.1629 21.406 26.3055C21.4699 26.4309 21.5719 26.5329 21.6973 26.5968C21.8399 26.6695 22.0266 26.6695 22.4 26.6695C23.0461 26.6696 23.6925 26.6603 24.3358 26.6077C25.0852 26.5465 25.7742 26.4151 26.4213 26.0854C27.4248 25.574 28.2407 24.7581 28.752 23.7546C29.0818 23.1075 29.2132 22.4186 29.2744 21.6691C29.3334 20.9475 29.3334 20.0617 29.3333 18.9884V13.0116C29.3334 11.9383 29.3334 11.0525 29.2744 10.3309C29.2132 9.58144 29.0818 8.8925 28.752 8.24539C28.2407 7.24185 27.4248 6.42596 26.4213 5.91463C25.7742 5.58491 25.0852 5.45349 24.3358 5.39226C23.6142 5.3333 22.7283 5.33332 21.6551 5.33333H21.3224C21.3051 4.81097 21.2614 4.36302 21.1516 3.95309C20.6585 2.1126 19.2209 0.675016 17.3804 0.181858C16.6982 -0.00093776 15.9106 -0.000511315 14.8501 6.29556e-05H14.4832ZM18.6535 5.33333C18.6413 4.98999 18.6182 4.80165 18.5758 4.64328C18.3292 3.72303 17.6104 3.00424 16.6902 2.75766C16.3938 2.67825 15.9925 2.6668 14.6667 2.6668C13.3409 2.6668 12.9395 2.67825 12.6432 2.75766C11.7229 3.00424 11.0041 3.72303 10.7575 4.64328C10.7151 4.80165 10.6921 4.98999 10.6798 5.33333H18.6535ZM14.6667 16.4C14.6667 16.0266 14.6667 15.8399 14.7393 15.6973C14.8032 15.5719 14.9052 15.4699 15.0307 15.406C15.1733 15.3333 15.36 15.3333 15.7333 15.3333H22.2667C22.64 15.3333 22.8267 15.3333 22.9693 15.406C23.0948 15.4699 23.1968 15.5719 23.2607 15.6973C23.3333 15.8399 23.3333 16.0266 23.3333 16.4V19.6C23.3333 19.9734 23.3333 20.1601 23.2607 20.3027C23.1968 20.4281 23.0948 20.5301 22.9693 20.594C22.8267 20.6667 22.64 20.6667 22.2667 20.6667H15.7333C15.36 20.6667 15.1733 20.6667 15.0307 20.594C14.9052 20.5301 14.8032 20.4281 14.7393 20.3027C14.6667 20.1601 14.6667 19.9734 14.6667 19.6V16.4ZM20 8C20.7364 8 21.3333 8.59695 21.3333 9.33333V12C21.3333 12.7364 20.7364 13.3333 20 13.3333C19.2636 13.3333 18.6667 12.7364 18.6667 12V9.33333C18.6667 8.59695 19.2636 8 20 8Z" fill="var(--fill-0, #A7FF5B)" fill-rule="evenodd" id="Solid"/>
</svg>