<?xml version="1.0" encoding="utf-8"?>
<svg xmlns="http://www.w3.org/2000/svg" fill="none" height="100%" overflow="visible" preserveAspectRatio="none" style="display: block;" viewBox="0 0 29.3334 26.667" width="100%">
<g id="Solid">
<path d="M14 9.33333C16.5773 9.33333 18.6667 7.244 18.6667 4.66667C18.6667 2.08934 16.5773 0 14 0C11.4227 0 9.33333 2.08934 9.33333 4.66667C9.33333 7.244 11.4227 9.33333 14 9.33333Z" fill="var(--fill-0, #00DBF1)"/>
<path d="M7.96734 8.83734C7.64911 8.37792 7.49 8.1482 7.31861 8.07231C7.16476 8.00419 7.00279 7.99585 6.84276 8.04783C6.66449 8.10573 6.52428 8.2693 6.24389 8.59646C5.11869 9.90927 4.35126 11.5388 4.09447 13.3336H4C3.26362 13.3336 2.66667 12.7366 2.66667 12.0002C2.66667 11.5084 2.93229 11.077 3.3343 10.8445C3.97172 10.4757 4.18953 9.66011 3.82081 9.02269C3.45208 8.38528 2.63645 8.16746 1.99903 8.53618C0.806908 9.22579 0 10.518 0 12.0002C0 14.2094 1.79086 16.0002 4 16.0002H4.09454C4.38246 18.0113 5.31178 19.8164 6.66658 21.199L6.66658 24.2978C6.66652 24.4567 6.66644 24.6463 6.6801 24.8134C6.69592 25.0071 6.73651 25.2844 6.88457 25.575C7.07632 25.9513 7.38228 26.2573 7.7586 26.449C8.0492 26.5971 8.32652 26.6377 8.52014 26.6535C8.68719 26.6671 8.87683 26.6671 9.03563 26.667H11.6308C11.7896 26.6671 11.9793 26.6671 12.1464 26.6535C12.34 26.6377 12.6173 26.5971 12.9079 26.449C13.2842 26.2573 13.5902 25.9513 13.7819 25.575C13.93 25.2844 13.9706 25.0071 13.9864 24.8134C14.0001 24.6463 14 24.4567 13.9999 24.2978L13.9999 24.0003H15.3333L15.3333 24.2973C15.3332 24.4562 15.3331 24.6458 15.3468 24.8129C15.3626 25.0066 15.4032 25.2839 15.5513 25.5745C15.743 25.9508 16.049 26.2568 16.4253 26.4485C16.7159 26.5966 16.9932 26.6372 17.1868 26.653C17.3539 26.6666 17.5435 26.6666 17.7023 26.6665H20.2976C20.4564 26.6666 20.6461 26.6666 20.8131 26.653C21.0068 26.6372 21.2841 26.5966 21.5747 26.4485C21.951 26.2568 22.257 25.9508 22.4487 25.5745C22.5968 25.2839 22.6374 25.0066 22.6532 24.8129C22.6668 24.6458 22.6668 24.4562 22.6667 24.2973L22.6667 23.1013C24.1416 22.4008 25.4022 21.3259 26.327 19.9998L26.9642 19.9998C27.123 19.9999 27.3127 20 27.4798 19.9863C27.6734 19.9705 27.9507 19.9299 28.2413 19.7818C28.6177 19.5901 28.9236 19.2841 29.1154 18.9078C29.2634 18.6172 29.304 18.3399 29.3199 18.1463C29.3335 17.9792 29.3334 17.7896 29.3334 17.6308V13.0181C29.3334 12.8669 29.3335 12.6863 29.3211 12.5269C29.3067 12.3427 29.27 12.0784 29.1353 11.7986C28.9387 11.3905 28.6094 11.0612 28.2012 10.8646C27.9214 10.7298 27.6572 10.6931 27.4729 10.6788C27.354 10.6695 27.2232 10.6672 27.1016 10.6666C26.6541 9.72432 26.0538 8.86975 25.3334 8.13451L25.3334 6.70974C25.3334 6.5033 25.3335 6.26962 25.3156 6.06864C25.2958 5.84672 25.2442 5.50361 25.0334 5.16355C24.7707 4.73955 24.3591 4.42903 23.8792 4.2929C23.4943 4.18371 23.1502 4.22831 22.9314 4.27025C22.7333 4.30823 22.5086 4.3725 22.3101 4.42928L22.1024 4.48864C21.8291 4.56672 21.6924 4.60577 21.5963 4.67615C21.5035 4.7441 21.4467 4.81107 21.3949 4.91377C21.3412 5.02014 21.3227 5.18236 21.2857 5.50682C20.8689 9.16124 17.766 12 14 12C11.4993 12 9.29101 10.7483 7.96734 8.83734Z" fill="var(--fill-0, #00DBF1)"/>
</g>
</svg>