<svg width="53" height="41" viewBox="49 0 53 41" fill="none" xmlns="http://www.w3.org/2000/svg">
  <path d="M75.4121 5.59961C86.9925 5.5998 96.3799 14.988 96.3799 26.5684C96.3798 29.6099 95.7309 32.5047 94.5625 35.1182L94.4609 35.3467L94.2324 35.2441L91.3223 33.9434L91.0947 33.8418L91.1963 33.6133C92.1572 31.4641 92.6923 29.0812 92.6924 26.5684C92.6924 17.0245 84.9559 9.2873 75.4121 9.28711C65.8681 9.28711 58.1309 17.0244 58.1309 26.5684C58.1309 28.8233 58.5614 30.9733 59.3438 32.9434L59.7783 33.9453L59.877 34.1719L59.6523 34.2725L56.7471 35.583L56.5225 35.6846L56.418 35.4619C56.245 35.0931 56.0824 34.7181 55.9307 34.3379C54.9706 31.9327 54.4434 29.3098 54.4434 26.5684C54.4434 14.9878 63.8316 5.59961 75.4121 5.59961ZM63.752 16.2412C64.4255 15.478 65.5899 15.4049 66.3535 16.0781C67.1172 16.7516 67.1909 17.917 66.5176 18.6807C64.6622 20.7845 63.5381 23.5431 63.5381 26.5684C63.5381 28.2817 63.8981 29.9062 64.5449 31.374C64.9556 32.3058 64.5333 33.394 63.6016 33.8047C62.6699 34.2153 61.5816 33.793 61.1709 32.8613C60.3215 30.9339 59.8506 28.8035 59.8506 26.5684C59.8506 22.6109 61.3254 18.9927 63.752 16.2412ZM75.4688 10.9502C84.0943 10.9502 91.0869 17.9428 91.0869 26.5684C91.0869 28.6915 90.6615 30.72 89.8906 32.5703C89.4991 33.5101 88.4203 33.9548 87.4805 33.5635C86.5405 33.1719 86.0957 32.0923 86.4873 31.1523C87.0742 29.7435 87.3994 28.1962 87.3994 26.5684C87.3994 19.9793 82.0578 14.6377 75.4688 14.6377C73.4335 14.6377 71.5221 15.1452 69.8496 16.04C68.9518 16.5204 67.8349 16.182 67.3545 15.2842C66.8742 14.3864 67.2126 13.2694 68.1104 12.7891C70.3048 11.615 72.8119 10.9502 75.4688 10.9502ZM75.4121 16.3008C81.0826 16.301 85.6797 20.8978 85.6797 26.5684C85.6796 27.8606 85.4399 29.1012 85.001 30.2451L84.9111 30.4785L84.6777 30.3887L81.7021 29.2471L81.4688 29.1572L81.5576 28.9238C81.8372 28.1949 81.9921 27.4019 81.9922 26.5684C81.9922 22.9343 79.0461 19.9875 75.4121 19.9873C71.7779 19.9873 68.8311 22.9342 68.8311 26.5684C68.8311 27.4018 68.986 28.1949 69.2656 28.9238L69.3555 29.1572L69.1211 29.2471L66.1455 30.3887L65.9121 30.4785L65.8223 30.2451C65.3834 29.1012 65.1446 27.8605 65.1445 26.5684C65.1445 20.8977 69.7414 16.3008 75.4121 16.3008Z" fill="#F8EBBC" stroke="#1E2611" stroke-width="0.5"/>
  <path d="M75.4678 36.2227C77.3897 36.2227 79.2381 36.5563 80.9551 37.1699C81.9139 37.5126 82.4139 38.5676 82.0713 39.5264C81.7286 40.4852 80.6727 40.9843 79.7139 40.6416C78.3896 40.1684 76.9606 39.9102 75.4678 39.9102C73.9749 39.9102 72.5459 40.1683 71.2217 40.6416C70.2629 40.9841 69.2079 40.4851 68.8652 39.5264C68.5226 38.5675 69.0226 37.5126 69.9814 37.1699C71.6983 36.5564 73.5461 36.2227 75.4678 36.2227ZM75.4678 31.3271C77.0893 31.3272 78.6722 31.5064 80.1953 31.8457C81.1889 32.0673 81.8151 33.0522 81.5938 34.0459C81.3724 35.0397 80.3873 35.6655 79.3936 35.4443C78.1319 35.1633 76.8179 35.0147 75.4678 35.0146C71.2535 35.0147 67.3829 36.4643 64.3193 38.8926C63.5214 39.5251 62.361 39.3907 61.7285 38.5928C61.0963 37.7949 61.2306 36.6354 62.0283 36.0029C65.7202 33.0765 70.3924 31.3273 75.4678 31.3271ZM82.0752 34.209C82.5014 33.2843 83.5968 32.8796 84.5215 33.3057C86.0952 34.031 87.5666 34.9395 88.9082 36.0029C89.706 36.6355 89.8395 37.7949 89.207 38.5928C88.5745 39.3906 87.4151 39.525 86.6172 38.8926C85.5032 38.0096 84.2827 37.2564 82.9785 36.6553C82.0539 36.2291 81.6492 35.1337 82.0752 34.209ZM50.2334 19.0723C50.523 18.0961 51.5492 17.5395 52.5254 17.8291C53.5013 18.1189 54.0581 19.1451 53.7686 20.1211C53.1631 22.1622 52.837 24.3256 52.8369 26.5684C52.8369 30.1286 54.0665 31.9359 55.2988 32.6123C56.5071 33.2755 58.4403 33.2425 60.7676 31.5186C63.4737 29.514 65.6262 28.0927 67.8887 27.2012C70.1965 26.2918 72.5017 25.9776 75.4678 25.9775C80.5988 25.9775 86.1622 27.8317 90.6289 31.5898C92.0405 32.7775 93.6286 33.1761 94.8564 32.9121C95.9727 32.6719 97.1582 31.8054 97.748 29.5938C98.0106 28.61 99.0211 28.0257 100.005 28.2881C100.989 28.5505 101.574 29.5603 101.312 30.5439C100.425 33.8679 98.3159 35.9402 95.6309 36.5176C93.0579 37.0707 90.3405 36.1659 88.2549 34.4111C84.4683 31.2252 79.7506 29.665 75.4678 29.665C72.7832 29.6651 70.9763 29.9477 69.2402 30.6318C67.4586 31.3339 65.6345 32.5028 62.9619 34.4824C59.9124 36.7412 56.4087 37.4279 53.5244 35.8447C50.6648 34.275 49.1494 30.8721 49.1494 26.5684C49.1495 23.9667 49.528 21.4502 50.2334 19.0723ZM89.0098 6.0957C89.6342 5.29156 90.7924 5.14532 91.5967 5.76953C97.5906 10.4239 101.524 17.6195 101.774 25.7432C101.806 26.7609 101.006 27.6121 99.9883 27.6436C98.9706 27.6749 98.1204 26.8751 98.0889 25.8574C97.8736 18.8766 94.4966 12.6907 89.335 8.68262C88.5309 8.05818 88.3856 6.8999 89.0098 6.0957ZM75.4678 0.25C79.9828 0.25 84.2378 1.38851 87.9551 3.39551C88.8509 3.87921 89.1856 4.99763 88.7021 5.89355C88.2185 6.78938 87.1 7.12402 86.2041 6.64062C83.0116 4.91688 79.3563 3.9375 75.4678 3.9375C66.6348 3.93765 58.9801 8.99771 55.251 16.3857C54.7921 17.2947 53.6834 16.66 52.7744 17.2012C51.8656 16.7424 51.5005 15.6335 51.959 14.7246C56.2908 6.14258 65.1898 0.250147 75.4678 0.25Z" fill="#F8EBBC" stroke="#1E2611" stroke-width="0.5" stroke-linecap="round"/>
</svg>
