<svg width="399" height="112" viewBox="0 0 399 112" fill="none" xmlns="http://www.w3.org/2000/svg">
<g clip-path="url(#clip0_4997_740)">
<path d="M46.4999 55.996C43.6066 55.3342 40.6602 54.9308 37.6955 54.7907C35.151 54.5992 35.2861 56.0636 35.2861 56.0636C35.2073 56.9985 35.6238 57.19 36.6258 57.832C38.0498 58.4098 39.4242 59.103 40.7354 59.9047C41.8613 60.6706 44.4057 62.2814 44.372 64.6244C44.3536 65.6969 43.9767 66.7324 43.3012 67.5655C42.6257 68.3985 41.6906 68.981 40.6453 69.2201H6.14809C4.95367 69.2201 3.80824 69.6948 2.96366 70.5398C2.11908 71.3847 1.64453 72.5308 1.64453 73.7258V80.3491C1.64752 84.8671 3.44361 89.1991 6.63792 92.3928C9.83222 95.5865 14.1633 97.3805 18.6792 97.3805H43.9667C44.3044 97.3805 44.6309 97.3805 44.9575 97.3805C50.4816 97.3805 55.7796 95.185 59.6858 91.277C63.592 87.369 65.7864 82.0686 65.7864 76.5418C65.8202 65.5142 57.1621 58.3952 46.4999 55.996Z" fill="white"/>
<path d="M14.7717 54.6411L28.8002 56.4321H29.0253C29.4732 56.459 29.9135 56.3068 30.2492 56.0089C30.5849 55.7111 30.7887 55.292 30.8156 54.8439C30.8424 54.3958 30.6903 53.9553 30.3925 53.6194C30.0948 53.2835 29.6759 53.0797 29.228 53.0528L15.267 51.2618C7.82486 50.0115 3.37767 46.193 3.37767 41.0227V39.626C3.37767 33.9939 8.59046 29.4094 14.9855 29.4094H38.5392V36.4269C38.5369 37.3992 38.7863 38.3555 39.263 39.2027C39.7398 40.0499 40.4277 40.7592 41.2597 41.2616C42.0918 41.764 43.0395 42.0424 44.011 42.0696C44.9824 42.0968 45.9443 41.872 46.8031 41.4169L63.2411 32.7098C64.1488 32.232 64.9089 31.5152 65.4391 30.6367C65.9693 29.7583 66.2496 28.7516 66.2496 27.7254C66.2496 26.6992 65.9693 25.6925 65.4391 24.8141C64.9089 23.9356 64.1488 23.2188 63.2411 22.741L46.8031 14.0338C45.9443 13.5787 44.9824 13.3539 44.011 13.3811C43.0395 13.4083 42.0918 13.6867 41.2597 14.1891C40.4277 14.6915 39.7398 15.4008 39.263 16.248C38.7863 17.0953 38.5369 18.0515 38.5392 19.0238V26.0301H14.9855C6.72149 26.0301 0 32.1353 0 39.626V41.0227C0 47.9051 5.6407 53.1091 14.7717 54.6411Z" fill="white"/>
<path d="M66.28 13.6615C65.9619 13.3478 65.5332 13.1719 65.0865 13.1719C64.6399 13.1719 64.2113 13.3478 63.8932 13.6615C63.7352 13.8176 63.6097 14.0035 63.5241 14.2084C63.4385 14.4134 63.3945 14.6333 63.3945 14.8555C63.3945 15.0776 63.4385 15.2975 63.5241 15.5025C63.6097 15.7074 63.7352 15.8933 63.8932 16.0495L108.929 61.1062C109.086 61.263 109.273 61.3871 109.478 61.4717C109.684 61.5563 109.904 61.5996 110.126 61.599C110.348 61.5985 110.568 61.5542 110.773 61.4687C110.978 61.3832 111.165 61.2581 111.321 61.1005C111.478 60.943 111.602 60.7561 111.687 60.5505C111.771 60.345 111.814 60.1248 111.814 59.9025C111.813 59.6803 111.769 59.4603 111.684 59.2551C111.598 59.05 111.473 58.8637 111.316 58.7069L66.28 13.6615Z" fill="white"/>
<path d="M90.3653 47.2889C90.1056 47.029 89.7861 46.8366 89.435 46.7286C89.0839 46.6205 88.7117 46.5999 88.3509 46.6688C87.99 46.7377 87.6515 46.8938 87.3648 47.1237C87.0781 47.3535 86.852 47.65 86.7062 47.9873L66.7779 94.1704C66.628 94.5139 66.5662 94.8893 66.598 95.2627C66.6297 95.636 66.7541 95.9956 66.9598 96.3088C67.1655 96.6219 67.4461 96.8788 67.7761 97.0562C68.106 97.2335 68.4749 97.3257 68.8495 97.3244H92.8422C93.283 97.3249 93.7142 97.1961 94.0825 96.9539C94.4507 96.7116 94.7397 96.3665 94.9138 95.9614L107.591 66.5394C107.771 66.1249 107.822 65.6658 107.738 65.2219C107.654 64.778 107.438 64.3697 107.119 64.05L90.3653 47.2889Z" fill="white"/>
<path d="M127.046 13.6289H102.975C102.534 13.6283 102.103 13.7571 101.735 13.9994C101.366 14.2417 101.077 14.5868 100.903 14.9919L92.9094 33.5327C92.7321 33.9458 92.6822 34.4025 92.7665 34.8442C92.8508 35.2858 93.0652 35.6921 93.3822 36.0108L110.192 52.8282C110.452 53.0878 110.772 53.2796 111.124 53.3869C111.476 53.4942 111.848 53.5137 112.209 53.4437C112.57 53.3736 112.909 53.2163 113.195 52.9853C113.481 52.7543 113.706 52.4567 113.851 52.1185L129.095 16.7716C129.242 16.4304 129.302 16.0583 129.27 15.6883C129.238 15.3183 129.116 14.9619 128.913 14.6508C128.71 14.3398 128.433 14.0837 128.108 13.9054C127.782 13.7271 127.418 13.6321 127.046 13.6289V13.6289Z" fill="white"/>
<path d="M249.172 13.1678H210.16V1.68963C210.16 1.24151 209.982 0.811737 209.665 0.49487C209.348 0.178004 208.919 0 208.471 0C208.023 0 207.593 0.178004 207.277 0.49487C206.96 0.811737 206.782 1.24151 206.782 1.68963V13.1678H190.794C190.346 13.1678 189.917 13.3458 189.6 13.6627C189.283 13.9796 189.105 14.4093 189.105 14.8575C189.105 15.3056 189.283 15.7353 189.6 16.0521C189.917 16.369 190.346 16.5471 190.794 16.5471H206.557V75.898C206.557 76.2247 206.557 76.5513 206.557 76.878C206.557 82.4048 208.751 87.7052 212.658 91.6132C216.564 95.5212 221.862 97.7167 227.386 97.7167C238.386 97.7167 245.513 89.0095 247.899 78.3423C248.564 75.4439 248.971 72.4925 249.116 69.5225C249.307 66.988 247.843 67.1119 247.843 67.1119C246.898 67.0331 246.717 67.4498 246.064 68.4524C245.49 69.882 244.797 71.2611 243.993 72.5751C243.238 73.7015 241.617 76.2472 239.275 76.2134C238.203 76.1886 237.17 75.8076 236.338 75.1306C235.506 74.4535 234.924 73.5187 234.682 72.4737V16.5471H249.127C249.575 16.5471 250.004 16.369 250.321 16.0521C250.638 15.7353 250.816 15.3056 250.816 14.8575C250.816 14.4093 250.638 13.9796 250.321 13.6627C250.004 13.3458 249.575 13.1678 249.127 13.1678H249.172Z" fill="white"/>
<path d="M199.577 83.2852H193.801V41.1459C193.807 34.4142 191.551 27.8758 187.397 22.5802C183.243 17.2847 177.43 13.5392 170.893 11.9451C164.356 10.3509 157.473 11.0005 151.349 13.7896C145.225 16.5787 140.215 21.3455 137.124 27.3248V5.12322C137.124 4.6751 136.946 4.24533 136.629 3.92846C136.312 3.6116 135.883 3.43359 135.435 3.43359C134.987 3.43359 134.557 3.6116 134.241 3.92846C133.924 4.24533 133.746 4.6751 133.746 5.12322V90.7308C133.746 91.1789 133.924 91.6086 134.241 91.9255C134.557 92.2424 134.987 92.4204 135.435 92.4204C135.883 92.4204 136.312 92.2424 136.629 91.9255C136.946 91.6086 137.124 91.1789 137.124 90.7308V41.1685C137.124 34.0972 139.932 27.3156 144.929 22.3154C149.927 17.3153 156.706 14.5063 163.774 14.5063C170.842 14.5063 177.62 17.3153 182.618 22.3154C187.616 27.3156 190.423 34.0972 190.423 41.1685V83.3077H182.002C180.807 83.3077 179.662 83.7823 178.817 84.6273C177.973 85.4723 177.498 86.6183 177.498 87.8133V106.962C177.498 108.157 177.973 109.303 178.817 110.148C179.662 110.993 180.807 111.468 182.002 111.468H199.577C200.771 111.468 201.917 110.993 202.761 110.148C203.606 109.303 204.08 108.157 204.08 106.962V87.8133C204.083 87.2197 203.969 86.6314 203.744 86.0822C203.519 85.5329 203.188 85.0335 202.769 84.6128C202.351 84.192 201.853 83.8581 201.305 83.6302C200.758 83.4024 200.17 83.2852 199.577 83.2852Z" fill="white"/>
<path d="M163.535 63.1569C175.847 63.1569 185.827 53.1715 185.827 40.8538C185.827 28.5362 175.847 18.5508 163.535 18.5508C151.223 18.5508 141.242 28.5362 141.242 40.8538C141.242 53.1715 151.223 63.1569 163.535 63.1569Z" fill="white"/>
<path d="M320.101 89.0899C316.802 87.8508 314.314 83.976 314.314 83.976C313.683 82.9225 313.205 81.7847 312.895 80.5967C312.54 79.233 312.269 77.8486 312.084 76.4515V41.893C312.079 41.5125 312.026 41.1341 311.927 40.7666C311.343 34.7175 308.939 28.9877 305.032 24.334C301.125 19.6803 295.9 16.3215 290.045 14.701C284.191 13.0805 277.983 13.2745 272.241 15.2575C266.499 17.2405 261.493 20.9192 257.884 25.8078C257.739 25.9849 257.631 26.1898 257.567 26.4099C257.504 26.63 257.485 26.8608 257.514 27.0882C257.542 27.3156 257.616 27.5349 257.732 27.7327C257.847 27.9305 258.002 28.1027 258.186 28.2389C258.37 28.375 258.58 28.4722 258.803 28.5246C259.026 28.577 259.258 28.5834 259.483 28.5436C259.709 28.5037 259.924 28.4184 260.116 28.2928C260.307 28.1671 260.471 28.0039 260.598 27.8128C263.34 24.1248 266.985 21.204 271.181 19.3309V42.062C265.544 44.5457 260.835 48.7447 257.722 54.0616C254.609 59.3784 253.251 65.5421 253.842 71.6755C255.283 86.7357 268.344 98.0336 283.476 98.0336H293.485H297.054L298.957 97.9323C302.556 97.5685 306.131 96.9969 309.664 96.2201C311.375 95.7357 312.929 95.2289 314.359 94.6995C315.789 94.17 317.016 93.6856 318.052 93.2238C319.087 92.762 319.695 92.4916 320.168 92.2664L320.281 92.1875C320.551 92.0398 320.775 91.8211 320.93 91.5551C321.085 91.2891 321.164 90.9859 321.159 90.6781C321.17 90.3362 321.074 89.9994 320.884 89.7147C320.694 89.43 320.42 89.2116 320.101 89.0899V89.0899ZM265.867 88.2338L263.469 85.8458C260.046 81.9484 257.877 77.1095 257.245 71.9604C256.613 66.8113 257.546 61.5912 259.924 56.9809C262.302 52.3706 266.013 48.5842 270.574 46.1158C275.134 43.6474 280.333 42.6115 285.491 43.1433V94.5192C281.964 94.8804 278.4 94.5086 275.023 93.427C271.646 92.3454 268.529 90.5773 265.867 88.2338V88.2338Z" fill="white"/>
<path d="M397.957 13.8309C397.801 13.6729 397.616 13.5474 397.411 13.4618C397.206 13.3761 396.986 13.332 396.764 13.332C396.542 13.332 396.322 13.3761 396.117 13.4618C395.912 13.5474 395.727 13.6729 395.571 13.8309L371.735 37.6771L371.004 32.169C370.635 28.7485 369.667 25.4197 368.144 22.3353C367.003 20.061 365.359 18.077 363.336 16.5343C361.559 15.2033 359.483 14.3257 357.29 13.9773C355.123 13.6395 352.916 13.6395 350.749 13.9773C348.982 14.241 347.233 14.6173 345.514 15.1037C343.813 15.5881 342.248 16.1062 340.819 16.6244C339.389 17.1425 338.161 17.6382 337.137 18.1001L335.009 19.0688L334.896 19.1363C334.616 19.2932 334.385 19.5254 334.229 19.8068C334.074 20.0882 334 20.4075 334.017 20.7285C334.033 21.0496 334.139 21.3596 334.322 21.6237C334.506 21.8877 334.759 22.0952 335.054 22.2227V22.2227C338.353 23.4618 340.841 27.3366 340.841 27.3366C341.479 28.3864 341.957 29.5253 342.26 30.7159C342.639 32.1604 342.924 33.6278 343.115 35.1089L346.808 62.5597L323.592 85.7864C323.434 85.9425 323.309 86.1284 323.223 86.3334C323.138 86.5383 323.094 86.7582 323.094 86.9804C323.094 87.2025 323.138 87.4224 323.223 87.6274C323.309 87.8323 323.434 88.0183 323.592 88.1744C323.909 88.4908 324.338 88.6685 324.786 88.6685C325.233 88.6685 325.663 88.4908 325.979 88.1744L347.371 66.7725L372.31 41.8336L397.957 16.2189C398.115 16.0628 398.241 15.8769 398.326 15.6719C398.412 15.4669 398.456 15.247 398.456 15.0249C398.456 14.8028 398.412 14.5828 398.326 14.3779C398.241 14.1729 398.115 13.987 397.957 13.8309Z" fill="white"/>
<path d="M384.988 89.403C381.96 88.2766 379.607 84.8973 379.258 84.3566L379.168 84.2215C378.547 83.1684 378.084 82.0299 377.794 80.8422C377.403 79.4042 377.117 77.9399 376.938 76.4605L373.459 50.6205C373.403 50.2055 373.232 49.8145 372.965 49.4914C372.699 49.1683 372.348 48.9259 371.952 48.7913C371.555 48.6568 371.129 48.6354 370.721 48.7297C370.313 48.824 369.94 49.0302 369.643 49.3251L348.712 70.2652C348.467 70.51 348.282 70.8081 348.17 71.1363C348.059 71.4645 348.025 71.814 348.07 72.1576L349.05 79.4567C349.41 82.8775 350.374 86.2071 351.899 89.2903C353.043 91.5654 354.691 93.5494 356.717 95.0914C358.492 96.428 360.569 97.3063 362.763 97.6484C364.931 97.9863 367.137 97.9863 369.305 97.6484C371.072 97.3823 372.82 97.0061 374.54 96.522C376.24 96.0264 377.794 95.5194 379.224 95.0013C380.654 94.4831 381.881 93.9875 382.917 93.5257C383.953 93.0638 384.561 92.7823 385.034 92.557L385.146 92.4781C385.424 92.3211 385.653 92.0901 385.807 91.8106C385.961 91.5312 386.035 91.2143 386.02 90.8955C386.005 90.5766 385.901 90.2682 385.721 90.0047C385.541 89.7411 385.291 89.5329 385 89.403H384.988Z" fill="white"/>
</g>
<defs>
<clipPath id="clip0_4997_740">
<rect width="398.418" height="111.448" fill="white"/>
</clipPath>
</defs>
</svg>
