<?xml version="1.0" encoding="utf-8"?>
<svg xmlns="http://www.w3.org/2000/svg" fill="none" height="100%" overflow="visible" preserveAspectRatio="none" style="display: block;" viewBox="0 0 26.6667 26.4062" width="100%">
<path d="M23.9573 2.67137C23.773 2.68592 23.5192 2.72702 23.0685 2.80215L11.3352 4.7577C10.9987 4.81377 10.8193 4.84457 10.6915 4.87592L10.6785 4.87917L10.6775 4.89251C10.6676 5.02369 10.6667 5.20574 10.6667 5.54682V21.0729L10.6667 21.0778C10.664 24.0211 8.27724 26.4063 5.33333 26.4063C2.38781 26.4063 0 24.0184 0 21.0729C0 18.1274 2.38781 15.7396 5.33333 15.7396C6.30477 15.7396 7.21554 15.9993 8.00001 16.4531L8 5.50892C7.99997 5.22077 7.99993 4.93565 8.0184 4.69142C8.03895 4.41976 8.08721 4.10398 8.23361 3.77763C8.43954 3.3186 8.77112 2.92719 9.19005 2.6486C9.48789 2.45054 9.79144 2.35102 10.056 2.28609C10.2939 2.22772 10.5751 2.18088 10.8594 2.13355L22.6766 0.164012C23.0637 0.0994538 23.4337 0.0377344 23.7475 0.0129724C24.0862 -0.013761 24.4995 -0.0122356 24.9285 0.14709C25.513 0.364184 26.0029 0.779223 26.3132 1.32007C26.5408 1.71699 26.6103 2.12446 26.6396 2.46298C26.6668 2.77649 26.6667 3.1516 26.6667 3.54398L26.6667 18.4063C26.6667 18.4805 26.6606 18.5532 26.649 18.6241C26.5347 21.4686 24.1925 23.7396 21.32 23.7396C18.3745 23.7396 15.9867 21.3518 15.9867 18.4063C15.9867 15.4607 18.3745 13.0729 21.32 13.0729C22.2969 13.0729 23.2125 13.3356 24 13.7942V3.59126C24 3.13432 23.9988 2.87723 23.9829 2.69307L23.9807 2.66967L23.9573 2.67137Z" fill="var(--fill-0, #FEE300)" id="Solid"/>
</svg>