<?xml version="1.0" encoding="utf-8"?>
<svg xmlns="http://www.w3.org/2000/svg" fill="none" height="100%" overflow="visible" preserveAspectRatio="none" style="display: block;" viewBox="0 0 26.6667 26.6667" width="100%">
<g id="Solid">
<path d="M5.54861 9.90671e-07H21.1181C21.8209 -2.06327e-05 22.4273 -3.92869e-05 22.9267 0.0407637C23.4538 0.0838317 23.9781 0.17892 24.4826 0.435978C25.2353 0.819472 25.8472 1.43139 26.2307 2.18404C26.4878 2.68855 26.5828 3.21284 26.6259 3.73997C26.6667 4.23939 26.6667 4.84573 26.6667 5.54858L26.6667 6.66667C26.6667 7.90174 25.3374 9.33334 23.1111 9.33334C20.8848 9.33334 19.5556 7.90174 19.5556 6.66667C19.5556 5.93029 18.9586 5.33334 18.2222 5.33334C17.4858 5.33334 16.8889 5.93029 16.8889 6.66667C16.8889 7.90174 15.5597 9.33334 13.3333 9.33334C11.107 9.33334 9.77778 7.90174 9.77778 6.66667C9.77778 5.93029 9.18083 5.33334 8.44445 5.33334C7.70807 5.33334 7.11111 5.93029 7.11111 6.66667C7.11111 7.90174 5.78188 9.33334 3.55556 9.33334C1.32923 9.33334 9.90671e-07 7.90174 9.90671e-07 6.66667V5.54856C-2.06327e-05 4.84574 -3.92869e-05 4.23937 0.0407637 3.73997C0.0838317 3.21284 0.17892 2.68855 0.435978 2.18404C0.819472 1.43139 1.43139 0.819472 2.18404 0.435978C2.68855 0.17892 3.21284 0.0838317 3.73997 0.0407637C4.23937 -3.92869e-05 4.84579 -2.06327e-05 5.54861 9.90671e-07Z" fill="var(--fill-0, #FEE300)"/>
<path clip-rule="evenodd" d="M23.1111 12C24.3783 12 25.6255 11.6572 26.6667 11.0428V21.1181C26.6667 21.8209 26.6667 22.4273 26.6259 22.9267C26.5828 23.4538 26.4878 23.9781 26.2307 24.4826C25.8472 25.2353 25.2353 25.8472 24.4826 26.2307C23.9781 26.4878 23.4538 26.5828 22.9267 26.6259C22.4273 26.6667 21.8209 26.6667 21.1181 26.6667H5.54858C4.84573 26.6667 4.23939 26.6667 3.73997 26.6259C3.21284 26.5828 2.68855 26.4878 2.18404 26.2307C1.43139 25.8472 0.819472 25.2353 0.435978 24.4826C0.17892 23.9781 0.0838317 23.4538 0.0407637 22.9267C-3.92869e-05 22.4273 -2.06327e-05 21.8209 9.90671e-07 21.1181V11.0428C1.04117 11.6572 2.28837 12 3.55556 12C5.42943 12 7.2596 11.2505 8.44445 9.98134C9.6293 11.2505 11.4595 12 13.3333 12C15.2072 12 17.0374 11.2505 18.2222 9.98133C19.4071 11.2505 21.2372 12 23.1111 12ZM11.4667 16H15.2C15.9467 16 16.3201 16 16.6053 16.1453C16.8562 16.2732 17.0602 16.4771 17.188 16.728C17.3333 17.0132 17.3333 17.3866 17.3333 18.1333V24H9.33333V18.1333C9.33333 17.3866 9.33333 17.0132 9.47866 16.728C9.60649 16.4771 9.81047 16.2732 10.0613 16.1453C10.3466 16 10.7199 16 11.4667 16Z" fill="var(--fill-0, #FEE300)" fill-rule="evenodd"/>
</g>
</svg>