<?xml version="1.0" encoding="utf-8"?>
<svg xmlns="http://www.w3.org/2000/svg" fill="none" height="100%" overflow="visible" preserveAspectRatio="none" style="display: block;" viewBox="0 0 26.6667 26.6667" width="100%">
<g id="Solid">
<path d="M5.54861 1.07313e-06H21.1181C21.8209 -2.17364e-05 22.4273 -4.14128e-05 22.9267 0.0407626C23.4538 0.0838306 23.9781 0.178919 24.4826 0.435977C25.2353 0.819471 25.8472 1.43139 26.2307 2.18404C26.4878 2.68855 26.5828 3.21284 26.6259 3.73997C26.6667 4.23938 26.6667 4.84572 26.6667 5.54856V6.22364C26.6667 6.42511 26.6667 6.52584 26.6396 6.61784C26.6157 6.69931 26.5764 6.77546 26.5239 6.84219C26.4646 6.91755 26.3826 6.97595 26.2184 7.09275L16.1455 14.26L12.228 10.3425C12.1321 10.2465 12.0146 10.1289 11.9018 10.032C11.7688 9.91767 11.5734 9.76977 11.3063 9.66792C10.9542 9.53367 10.5713 9.50163 10.2018 9.57549C9.92139 9.63153 9.70413 9.7449 9.55395 9.83554C9.42671 9.91233 9.29124 10.0088 9.18071 10.0875L1.68507 15.421C1.14042 15.8085 0.868094 16.0023 0.641115 15.9936C0.443493 15.986 0.259437 15.891 0.138688 15.7344C1.77821e-06 15.5545 1.26009e-06 15.2203 1.26009e-06 14.5518V5.54858C-2.41712e-05 4.84573 -4.45172e-05 4.23939 0.04076 3.73997C0.083828 3.21284 0.178916 2.68855 0.435975 2.18404C0.819469 1.43139 1.43139 0.819471 2.18404 0.435977C2.68855 0.178919 3.21284 0.0838306 3.73996 0.0407626C4.23938 -4.14128e-05 4.84576 -2.17364e-05 5.54861 1.07313e-06Z" fill="var(--fill-0, #A7FF5B)"/>
<path d="M1.26009e-06 20.4429C1.26009e-06 20.2415 1.55469e-06 20.1407 0.0270271 20.0487C0.0509586 19.9673 0.0902333 19.8911 0.14274 19.8244C0.202034 19.749 0.284109 19.6906 0.448261 19.5738L10.521 12.4067L14.4384 16.3242C14.5343 16.4202 14.6519 16.5378 14.7646 16.6347C14.8976 16.749 15.093 16.8969 15.3602 16.9988C15.7123 17.133 16.0952 17.1651 16.4647 17.0912C16.7451 17.0352 16.9623 16.9218 17.1125 16.8312C17.2397 16.7544 17.3752 16.6579 17.4857 16.5792L24.9816 11.2456C25.5263 10.8581 25.7986 10.6643 26.0256 10.673C26.2232 10.6806 26.4072 10.7755 26.528 10.9321C26.6667 11.112 26.6667 11.4463 26.6667 12.1147V21.1181C26.6667 21.8209 26.6667 22.4273 26.6259 22.9267C26.5828 23.4538 26.4878 23.9781 26.2307 24.4826C25.8472 25.2353 25.2353 25.8472 24.4826 26.2307C23.9781 26.4878 23.4538 26.5828 22.9267 26.6259C22.4273 26.6667 21.8209 26.6667 21.1181 26.6667H5.54858C4.84573 26.6667 4.23939 26.6667 3.73996 26.6259C3.21284 26.5828 2.68855 26.4878 2.18404 26.2307C1.43139 25.8472 0.819469 25.2353 0.435975 24.4826C0.178916 23.9781 0.083828 23.4538 0.04076 22.9267C-4.45172e-05 22.4273 -2.41712e-05 21.8209 1.26009e-06 21.1181V20.4429Z" fill="var(--fill-0, #A7FF5B)"/>
</g>
</svg>