<?xml version="1.0" encoding="utf-8"?>
<svg xmlns="http://www.w3.org/2000/svg" fill="none" height="100%" overflow="visible" preserveAspectRatio="none" style="display: block;" viewBox="0 0 29.3333 21.3333" width="100%">
<path clip-rule="evenodd" d="M16.0152 0.00798678C15.7962 0.00585658 15.5983 0.00429463 15.4257 0.00314933C15.3952 0.00106121 15.3644 0 15.3333 0H14C13.9674 0 13.935 0.00117347 13.9029 0.00348053C13.7311 0.0047332 13.5344 0.00643688 13.3169 0.00875402C12.4971 0.0174905 11.3807 0.0349736 10.1971 0.0700103C9.01567 0.104984 7.75658 0.157747 6.65454 0.23782C5.58968 0.315192 4.55864 0.424803 3.89972 0.600352L3.88128 0.605407C3.08565 0.829642 2.36293 1.25922 1.78637 1.85134C1.20978 2.44349 0.799802 3.17723 0.598434 3.97867C0.591169 4.00758 0.584875 4.03673 0.579565 4.06607C0.183892 6.25176 -0.00988294 8.46898 0.000672803 10.6899C-0.0129674 12.9276 0.180824 15.1618 0.579575 17.3639C0.587442 17.4074 0.597462 17.4504 0.609598 17.4928C0.831584 18.2693 1.2507 18.9751 1.82591 19.5422C2.40109 20.1093 3.11289 20.5186 3.89232 20.731L3.89972 20.733C4.55864 20.9085 5.58968 21.0181 6.65454 21.0955C7.75658 21.1756 9.01567 21.2284 10.1971 21.2633C11.3807 21.2984 12.4971 21.3158 13.3169 21.3246C13.5344 21.3269 13.7311 21.3286 13.9029 21.3299C13.935 21.3322 13.9674 21.3333 14 21.3333H15.3333C15.366 21.3333 15.3984 21.3322 15.4304 21.3299C15.6022 21.3286 15.799 21.3269 16.0164 21.3246C16.8362 21.3158 17.9526 21.2984 19.1362 21.2633C20.3177 21.2284 21.5768 21.1756 22.6788 21.0955C23.7437 21.0181 24.7747 20.9085 25.4336 20.733L25.4521 20.7279C26.2477 20.5037 26.9704 20.0741 27.547 19.482C28.1236 18.8898 28.5335 18.1561 28.7349 17.3547C28.7422 17.3257 28.7485 17.2966 28.7538 17.2672C29.1464 15.0977 29.3402 12.8971 29.3327 10.6926C29.3464 8.45463 29.1526 6.22018 28.7538 4.01772C28.7485 3.9884 28.7422 3.95927 28.7349 3.93037C28.5335 3.12893 28.1236 2.39519 27.547 1.80304C26.9704 1.21093 26.2477 0.781345 25.4521 0.55711C25.4366 0.552758 25.4211 0.548686 25.4055 0.544894C24.7571 0.387173 23.7357 0.287538 22.6704 0.216864C21.5707 0.143908 20.3135 0.095788 19.1328 0.0638762C17.9501 0.0319118 16.8345 0.0159589 16.0152 0.00798678ZM11.7997 6.15478C11.6667 6.33241 11.6667 6.6506 11.6667 7.28698V14.0461C11.6667 14.6825 11.6667 15.0007 11.7997 15.1783C11.9155 15.3331 12.093 15.43 12.2858 15.4437C12.5072 15.4595 12.7748 15.2875 13.3101 14.9434L18.5672 11.5638C19.0317 11.2652 19.264 11.1159 19.3442 10.926C19.4143 10.7601 19.4143 10.5729 19.3442 10.4071C19.264 10.2172 19.0317 10.0679 18.5672 9.76928L13.3101 6.38973C12.7748 6.0456 12.5072 5.87354 12.2858 5.88935C12.093 5.90312 11.9155 5.99997 11.7997 6.15478Z" fill="var(--fill-0, #FEE300)" fill-rule="evenodd" id="Solid"/>
</svg>