<?xml version="1.0" encoding="utf-8"?>
<svg xmlns="http://www.w3.org/2000/svg" fill="none" height="100%" overflow="visible" preserveAspectRatio="none" style="display: block;" viewBox="0 0 30.6668 29.3333" width="100%">
<g id="Solid">
<path d="M20.6667 1.33333C17.353 1.33333 14.6667 4.01962 14.6667 7.33333C14.6667 10.647 17.353 13.3333 20.6667 13.3333C23.9804 13.3333 26.6667 10.647 26.6667 7.33333C26.6667 4.01962 23.9804 1.33333 20.6667 1.33333Z" fill="var(--fill-0, #00DBF1)"/>
<path d="M14.7091 1.03901C13.0407 2.61865 12 4.85445 12 7.33333C12 8.92946 12.4315 10.4248 13.1842 11.7091C12.6012 11.8979 11.9792 12 11.3333 12C8.01962 12 5.33333 9.31371 5.33333 6C5.33333 2.68629 8.01962 0 11.3333 0C12.5851 0 13.7473 0.383332 14.7091 1.03901Z" fill="var(--fill-0, #00DBF1)"/>
<path d="M22.2785 19.8577C22.2785 20.9128 21.5807 21.8051 20.6187 22.1034L21.2372 22.0747C21.9132 22.0747 22.5705 21.8621 23.1107 21.4673L26.8825 18.7154C27.8239 18.029 29.1415 18.1201 29.9736 18.9296C30.8979 19.8286 30.8979 21.285 29.9736 22.1825L26.7373 25.3307C25.8662 26.1782 24.7546 26.7568 23.5462 26.9922L18.972 27.8821C18.0649 28.0583 17.1298 28.037 16.2321 27.8183L12.0949 26.813C11.6 26.6915 11.0926 26.6307 10.5821 26.6307C10.0401 26.6307 9.76914 26.6307 9.55171 26.5531C9.17511 26.4187 8.87874 26.1223 8.74429 25.7457C8.66667 25.5283 8.66667 25.2573 8.66667 24.7153V20.1431C8.66667 19.762 8.66667 19.5714 8.7156 19.3958C8.75895 19.2403 8.8302 19.0939 8.92587 18.9638C9.03388 18.8169 9.18383 18.6994 9.48374 18.4642L11.0645 17.2248C11.0645 17.2248 13.6842 16 15.1314 16C15.7309 16 16.3273 16.0729 16.9096 16.2173L20.4879 17.1069C21.5401 17.3677 22.2785 18.3084 22.2785 19.3874V19.8577Z" fill="var(--fill-0, #00DBF1)"/>
<path clip-rule="evenodd" d="M3.29805 16C3.3098 16 3.32156 16 3.33334 16C3.34512 16 3.35688 16 3.36864 16C3.6487 16 3.92153 15.9999 4.15364 16.0158C4.40747 16.0331 4.70844 16.0737 5.02049 16.203C5.6739 16.4736 6.19303 16.9928 6.46368 17.6462C6.59294 17.9582 6.63357 18.2592 6.65089 18.513C6.66673 18.7451 6.6667 19.018 6.66667 19.298C6.66667 19.3098 6.66667 19.3215 6.66667 19.3333L6.66667 26.0353C6.6667 26.3153 6.66673 26.5882 6.65089 26.8203C6.63357 27.0741 6.59294 27.3751 6.46368 27.6871C6.19303 28.3405 5.6739 28.8597 5.02049 29.1303C4.70844 29.2596 4.40747 29.3002 4.15364 29.3175C3.92153 29.3334 3.6487 29.3333 3.36864 29.3333H3.29803C3.01797 29.3333 2.74514 29.3334 2.51303 29.3175C2.2592 29.3002 1.95824 29.2596 1.64618 29.1303C0.992773 28.8597 0.473643 28.3405 0.202992 27.6871C0.0737342 27.3751 0.0331026 27.0741 0.015784 26.8203C-5.28085e-05 26.5882 -2.56291e-05 26.3153 2.34531e-06 26.0353L4.65002e-06 19.3333C4.65002e-06 19.3215 3.45793e-06 19.3098 2.34531e-06 19.298C-2.56291e-05 19.018 -5.28085e-05 18.7451 0.0157841 18.513C0.0331027 18.2592 0.0737343 17.9582 0.202993 17.6462C0.473643 16.9928 0.992774 16.4736 1.64618 16.203C1.95824 16.0737 2.25921 16.0331 2.51304 16.0158C2.74515 15.9999 3.01798 16 3.29805 16Z" fill="var(--fill-0, #00DBF1)" fill-rule="evenodd"/>
</g>
</svg>