<?xml version="1.0" encoding="utf-8"?>
<svg xmlns="http://www.w3.org/2000/svg" fill="none" height="100%" overflow="visible" preserveAspectRatio="none" style="display: block;" viewBox="0 0 29.3339 26.3438" width="100%">
<path clip-rule="evenodd" d="M3.42444 3.34059e-06C3.43861 5.08899e-06 3.45278 6.8374e-06 3.46697 6.8374e-06L25.9095 3.34059e-06C26.246 -3.65548e-05 26.5737 -7.58146e-05 26.8513 0.0226005C27.1561 0.0475029 27.5157 0.10626 27.8776 0.290656C28.3794 0.546318 28.7873 0.954267 29.043 1.45603C29.2274 1.81793 29.2861 2.17758 29.311 2.48237C29.3337 2.75991 29.3337 3.08762 29.3336 3.42412L29.3336 4.3592C29.3336 4.38352 29.3337 4.40852 29.3338 4.43412C29.3346 4.71188 29.3356 5.06155 29.2461 5.40235C29.1684 5.69767 29.0407 5.97747 28.8683 6.22954C28.6695 6.52042 28.4046 6.74866 28.1941 6.92995C28.1747 6.94667 28.1558 6.96299 28.1374 6.97892L19.6097 14.3696C19.4647 14.4952 19.3922 14.5586 19.3417 14.607L19.3378 14.6107L19.3375 14.6161C19.334 14.686 19.3336 14.7823 19.3336 14.9741V21.9445C19.3336 21.9591 19.3338 21.9761 19.334 21.9953C19.336 22.1786 19.34 22.5591 19.2075 22.9144C19.096 23.2132 18.9147 23.481 18.6787 23.6955C18.398 23.9505 18.0432 24.0881 17.8722 24.1544C17.8544 24.1613 17.8385 24.1674 17.825 24.1728L13.2544 26.0011C13.0426 26.0859 12.8084 26.1796 12.6018 26.2413C12.3796 26.3076 12.0145 26.3943 11.5934 26.3068C11.0774 26.1996 10.6245 25.893 10.3333 25.4537C10.0957 25.0952 10.0406 24.724 10.0196 24.4931C10.0002 24.2784 10.0002 24.0261 10.0003 23.7979L10.0003 14.9741C10.0003 14.7823 9.99993 14.686 9.99647 14.6161L9.99619 14.6107L9.99228 14.607C9.94173 14.5586 9.86921 14.4952 9.72425 14.3696L1.19655 6.97892C1.17817 6.96299 1.15923 6.94667 1.13982 6.92996C0.929398 6.74866 0.664489 6.52042 0.465618 6.22954C0.293279 5.97747 0.165515 5.69767 0.0878962 5.40235C-0.00167227 5.06155 -0.000651674 4.71188 0.000158949 4.43413C0.000233654 4.40852 0.00030661 4.38352 0.00030661 4.3592V3.46667C0.00030661 3.45248 0.000304861 3.43831 0.000303113 3.42414C0.000263218 3.08763 0.000223957 2.75991 0.0229003 2.48237C0.0478027 2.17758 0.106559 1.81793 0.290956 1.45603C0.546618 0.954267 0.954566 0.546318 1.45633 0.290656C1.81823 0.10626 2.17788 0.0475029 2.48267 0.0226006C2.76021 -7.58146e-05 3.08793 -3.65548e-05 3.42444 3.34059e-06Z" fill="var(--fill-0, #00DBF1)" fill-rule="evenodd" id="Solid"/>
</svg>