<?xml version="1.0" encoding="utf-8"?>
<svg xmlns="http://www.w3.org/2000/svg" fill="none" height="100%" overflow="visible" preserveAspectRatio="none" style="display: block;" viewBox="0 0 21.3333 29.3333" width="100%">
<path clip-rule="evenodd" d="M15.7847 1.06275e-06H5.54861C4.84577 -2.15992e-05 4.23938 -4.11471e-05 3.73997 0.0407628C3.21284 0.0838308 2.68855 0.178919 2.18404 0.435977C1.43139 0.819471 0.819471 1.43139 0.435977 2.18404C0.178919 2.68855 0.0838306 3.21284 0.0407626 3.73997C-4.14327e-05 4.23938 -2.17468e-05 4.84572 1.07392e-06 5.54856V23.7847C-2.17468e-05 24.4876 -4.14327e-05 25.094 0.0407626 25.5934C0.0838306 26.1205 0.178919 26.6448 0.435977 27.1493C0.819471 27.9019 1.43139 28.5139 2.18404 28.8974C2.68855 29.1544 3.21284 29.2495 3.73997 29.2926C4.23939 29.3334 4.84573 29.3334 5.54858 29.3333H15.7848C16.4876 29.3334 17.094 29.3334 17.5934 29.2926C18.1205 29.2495 18.6448 29.1544 19.1493 28.8974C19.9019 28.5139 20.5139 27.9019 20.8974 27.1493C21.1544 26.6448 21.2495 26.1205 21.2926 25.5934C21.3334 25.094 21.3334 24.4877 21.3333 23.7849V5.54864C21.3334 4.84583 21.3334 4.23936 21.2926 3.73997C21.2495 3.21284 21.1544 2.68855 20.8974 2.18404C20.5139 1.43139 19.9019 0.819471 19.1493 0.435977C18.6448 0.178919 18.1205 0.0838308 17.5934 0.0407628C17.094 -4.11471e-05 16.4876 -2.15992e-05 15.7847 1.06275e-06ZM14.6667 2.66667V3.2C14.6667 3.94674 14.6667 4.32011 14.5213 4.60532C14.3935 4.8562 14.1895 5.06018 13.9387 5.18801C13.6534 5.33333 13.2801 5.33333 12.5333 5.33333H8.8C8.05326 5.33333 7.6799 5.33333 7.39468 5.18801C7.1438 5.06018 6.93982 4.8562 6.81199 4.60532C6.66667 4.32011 6.66667 3.94674 6.66667 3.2V2.66667H14.6667Z" fill="var(--fill-0, #00DBF1)" fill-rule="evenodd" id="Solid"/>
</svg>