<?xml version="1.0" encoding="utf-8"?>
<svg xmlns="http://www.w3.org/2000/svg" fill="none" height="100%" overflow="visible" preserveAspectRatio="none" style="display: block;" viewBox="0 0 28.7583 21.3333" width="100%">
<path clip-rule="evenodd" d="M16.5032 2.10035e-07H12.2551C10.5526 -9.67798e-06 9.19623 -1.75536e-05 8.09679 0.0870694C6.96904 0.176398 6.00404 0.363222 5.108 0.795891C3.65677 1.49664 2.45102 2.61934 1.64866 4.01695C1.15325 4.87989 0.898143 5.82912 0.728693 6.94764C0.563495 8.0381 0.466864 9.39104 0.345581 11.0892L0.0135435 15.7377C-0.202436 18.7614 2.19235 21.3333 5.22377 21.3333C6.77399 21.3333 8.24413 20.6448 9.23657 19.4538L9.73678 18.8536C10.224 18.2689 10.3704 18.1003 10.5237 17.9697C10.8878 17.6597 11.3285 17.4533 11.7998 17.3721C11.9982 17.3379 12.2215 17.3333 12.9826 17.3333H15.7757C16.5368 17.3333 16.7601 17.3379 16.9585 17.3721C17.4298 17.4533 17.8705 17.6597 18.2346 17.9697C18.3879 18.1003 18.5343 18.2689 19.0215 18.8536L19.5217 19.4538C20.5142 20.6448 21.9843 21.3333 23.5345 21.3333C26.566 21.3333 28.9607 18.7614 28.7448 15.7377L28.4127 11.0891C28.2914 9.391 28.1948 8.03808 28.0296 6.94764C27.8602 5.82912 27.6051 4.87989 27.1097 4.01695C26.3073 2.61934 25.1015 1.49664 23.6503 0.795891C22.7543 0.363222 21.7893 0.176398 20.6615 0.0870694C19.5621 -1.75536e-05 18.2057 -9.67798e-06 16.5032 2.10035e-07ZM10.3792 6.66667C10.3792 5.93029 9.78228 5.33333 9.0459 5.33333C8.30952 5.33333 7.71256 5.93029 7.71256 6.66667V8H6.37923C5.64285 8 5.0459 8.59695 5.0459 9.33333C5.0459 10.0697 5.64285 10.6667 6.37923 10.6667H7.71256V12C7.71256 12.7364 8.30952 13.3333 9.0459 13.3333C9.78228 13.3333 10.3792 12.7364 10.3792 12V10.6667H11.7126C12.4489 10.6667 13.0459 10.0697 13.0459 9.33333C13.0459 8.59695 12.4489 8 11.7126 8H10.3792V6.66667ZM17.0459 10.6667C17.0459 9.93029 17.6429 9.33333 18.3792 9.33333H18.3926C19.1289 9.33333 19.7259 9.93029 19.7259 10.6667C19.7259 11.403 19.1289 12 18.3926 12H18.3792C17.6429 12 17.0459 11.403 17.0459 10.6667ZM21.0459 8C21.0459 7.26362 21.6429 6.66667 22.3792 6.66667H22.3926C23.1289 6.66667 23.7259 7.26362 23.7259 8C23.7259 8.73638 23.1289 9.33333 22.3926 9.33333H22.3792C21.6429 9.33333 21.0459 8.73638 21.0459 8Z" fill="var(--fill-0, #FEE300)" fill-rule="evenodd" id="Solid"/>
</svg>