<?xml version="1.0" encoding="utf-8"?>
<svg xmlns="http://www.w3.org/2000/svg" fill="none" height="100%" overflow="visible" preserveAspectRatio="none" style="display: block;" viewBox="0 0 29.3333 29.3333" width="100%">
<path clip-rule="evenodd" d="M14.6667 0C6.56649 0 0 6.56649 0 14.6667C0 22.7668 6.56649 29.3333 14.6667 29.3333C22.7668 29.3333 29.3333 22.7668 29.3333 14.6667C29.3333 6.56649 22.7668 0 14.6667 0ZM17.3333 6.66667C18.0697 6.66667 18.6667 7.26362 18.6667 8V21.3333C18.6667 22.0697 18.0697 22.6667 17.3333 22.6667C16.597 22.6667 16 22.0697 16 21.3333V8C16 7.26362 16.597 6.66667 17.3333 6.66667ZM13.3333 10.6667C13.3333 9.93029 12.7364 9.33333 12 9.33333C11.2636 9.33333 10.6667 9.93029 10.6667 10.6667V18.6667C10.6667 19.403 11.2636 20 12 20C12.7364 20 13.3333 19.403 13.3333 18.6667V10.6667ZM8 13.3333C8 12.597 7.40305 12 6.66667 12C5.93029 12 5.33333 12.597 5.33333 13.3333V16C5.33333 16.7364 5.93029 17.3333 6.66667 17.3333C7.40305 17.3333 8 16.7364 8 16V13.3333ZM24 13.3333C24 12.597 23.403 12 22.6667 12C21.9303 12 21.3333 12.597 21.3333 13.3333V16C21.3333 16.7364 21.9303 17.3333 22.6667 17.3333C23.403 17.3333 24 16.7364 24 16V13.3333Z" fill="var(--fill-0, #A7FF5B)" fill-rule="evenodd" id="Solid"/>
</svg>