<?xml version="1.0" encoding="utf-8"?>
<svg xmlns="http://www.w3.org/2000/svg" fill="none" height="100%" overflow="visible" preserveAspectRatio="none" style="display: block;" viewBox="0 0 26.6667 26.6667" width="100%">
<g id="Solid">
<path d="M7.33333 11.3333C7.33333 10.2288 8.22877 9.33333 9.33333 9.33333C10.4379 9.33333 11.3333 10.2288 11.3333 11.3333C11.3333 12.4379 10.4379 13.3333 9.33333 13.3333C8.22877 13.3333 7.33333 12.4379 7.33333 11.3333Z" fill="var(--fill-0, #A7FF5B)"/>
<path clip-rule="evenodd" d="M21.1181 5.03896e-06L5.54861 9.90682e-07C4.8458 -2.06329e-05 4.23937 -3.92869e-05 3.73997 0.0407636C3.21284 0.0838315 2.68855 0.178919 2.18404 0.435978C1.43139 0.819472 0.819472 1.43139 0.435979 2.18404C0.17892 2.68855 0.0838319 3.21284 0.0407639 3.73997C-3.89889e-05 4.23937 -2.04738e-05 4.84569 9.90671e-07 5.54851V17.1181C-2.06327e-05 17.8209 -3.92869e-05 18.4273 0.0407637 18.9267C0.0838316 19.4538 0.17892 19.9781 0.435978 20.4826C0.819472 21.2353 1.43139 21.8472 2.18404 22.2307C2.68855 22.4877 3.21284 22.5828 3.73997 22.6259C4.23935 22.6667 4.84564 22.6667 5.54843 22.6667L21.118 22.6667C21.8208 22.6667 22.4273 22.6667 22.9267 22.6259C23.4538 22.5828 23.9781 22.4878 24.4826 22.2307C25.2353 21.8472 25.8472 21.2353 26.2307 20.4826C26.4878 19.9781 26.5828 19.4538 26.6259 18.9267C26.6667 18.4273 26.6667 17.8209 26.6667 17.1181V5.54858C26.6667 4.84573 26.6667 4.23939 26.6259 3.73997C26.5828 3.21284 26.4878 2.68855 26.2307 2.18404C25.8472 1.4314 25.2353 0.819474 24.4826 0.43598C23.9781 0.178922 23.4538 0.0838336 22.9267 0.0407656C22.4273 -3.93863e-05 21.8209 -1.88824e-05 21.1181 5.03896e-06ZM22 6C22 5.26362 21.403 4.66667 20.6667 4.66667C19.9303 4.66667 19.3333 5.26362 19.3333 6V16.6667C19.3333 17.403 19.9303 18 20.6667 18C21.403 18 22 17.403 22 16.6667V6ZM9.33333 6.66667C6.75601 6.66667 4.66667 8.75601 4.66667 11.3333C4.66667 13.9107 6.75601 16 9.33333 16C11.9107 16 14 13.9107 14 11.3333C14 8.75601 11.9107 6.66667 9.33333 6.66667Z" fill="var(--fill-0, #A7FF5B)" fill-rule="evenodd"/>
<path d="M4 25.3333C4 24.597 4.59696 24 5.33334 24H9.33334C10.0697 24 10.6667 24.597 10.6667 25.3333C10.6667 26.0697 10.0697 26.6667 9.33334 26.6667H5.33334C4.59696 26.6667 4 26.0697 4 25.3333Z" fill="var(--fill-0, #A7FF5B)"/>
<path d="M16 25.3333C16 24.597 16.597 24 17.3333 24H21.3333C22.0697 24 22.6667 24.597 22.6667 25.3333C22.6667 26.0697 22.0697 26.6667 21.3333 26.6667H17.3333C16.597 26.6667 16 26.0697 16 25.3333Z" fill="var(--fill-0, #A7FF5B)"/>
</g>
</svg>