<?xml version="1.0" encoding="utf-8"?>
<svg xmlns="http://www.w3.org/2000/svg" fill="none" height="100%" overflow="visible" preserveAspectRatio="none" style="display: block;" viewBox="0 0 29.3333 26.6667" width="100%">
<path clip-rule="evenodd" d="M0 9.97333C0 5.29481 3.54365 0 9.18519 0C11.6212 0 13.4214 0.947338 14.6667 2.01443C15.9119 0.947338 17.7121 0 20.1481 0C25.7897 0 29.3333 5.29481 29.3333 9.97333C29.3333 12.4339 28.3805 14.7062 27.0573 16.6788C25.733 18.653 23.9899 20.3999 22.2815 21.8397C20.5681 23.2838 18.853 24.4496 17.5515 25.2548C16.8999 25.6579 16.3462 25.9743 15.9411 26.193C15.7396 26.3018 15.5683 26.3899 15.4362 26.4538C15.3719 26.4849 15.3049 26.5161 15.2426 26.5423C15.2131 26.5548 15.1678 26.5732 15.1158 26.5908C15.0902 26.5995 15.0473 26.6134 14.9941 26.6265C14.9603 26.6349 14.8317 26.6667 14.6667 26.6667C14.5017 26.6667 14.374 26.6351 14.3402 26.6268C14.287 26.6137 14.2431 26.5995 14.2176 26.5908C14.1655 26.5732 14.1203 26.5548 14.0908 26.5423C14.0284 26.5161 13.9614 26.4849 13.8972 26.4538C13.765 26.3899 13.5938 26.3018 13.3923 26.193C12.9872 25.9743 12.4334 25.6579 11.7818 25.2548C10.4804 24.4496 8.76527 23.2838 7.05185 21.8397C5.34344 20.3999 3.6003 18.653 2.27605 16.6788C0.952855 14.7062 0 12.4339 0 9.97333Z" fill="var(--fill-0, #FEE300)" fill-rule="evenodd" id="Solid"/>
</svg>