<?xml version="1.0" encoding="utf-8"?>
<svg xmlns="http://www.w3.org/2000/svg" fill="none" height="100%" overflow="visible" preserveAspectRatio="none" style="display: block;" viewBox="0 0 29.3335 26.6667" width="100%">
<path clip-rule="evenodd" d="M16.0001 1.33333C16.0001 0.596954 15.4031 0 14.6667 0C13.9304 0 13.3334 0.596954 13.3334 1.33333V6.8707L6.47198 8.01427C6.38909 8.0265 6.30809 8.04644 6.22994 8.07355C6.06003 8.13222 5.9076 8.22343 5.77868 8.33874C5.67296 8.43311 5.5815 8.54506 5.50907 8.67181L0.702552 17.0832C0.527614 17.3889 0.373226 17.6587 0.261286 17.953C0.162779 18.212 0.091458 18.4806 0.0484715 18.7544C-0.000377536 19.0655 -0.000187277 19.3763 2.82538e-05 19.7286L5.7182e-05 20C5.7182e-05 20.0039 7.40315e-05 20.0078 0.000107662 20.0117C0.0064283 23.6882 2.98877 26.6667 6.66676 26.6667C10.3487 26.6667 13.3334 23.6819 13.3334 20L13.3334 19.7025C13.3334 19.6898 13.3334 19.677 13.3334 19.664C13.3335 19.3381 13.3308 19.0463 13.285 18.7544C13.242 18.4806 13.1707 18.212 13.0722 17.953C12.9602 17.6587 12.8058 17.3889 12.6309 17.0832L8.77421 10.334L20.1156 8.44379L16.7026 14.4165C16.5276 14.7222 16.3732 14.992 16.2613 15.2863C16.1628 15.5454 16.0915 15.8139 16.0485 16.0877C15.9996 16.3988 15.9998 16.7097 16 17.0619L16.0001 17.3333C16.0001 17.3373 16.0001 17.3412 16.0001 17.3451C16.0064 21.0216 18.9888 24 22.6668 24C26.3487 24 29.3334 21.0152 29.3334 17.3333L29.3334 17.0358C29.3334 17.0194 29.3335 17.0027 29.3334 16.9856C29.3334 16.6644 29.3303 16.3762 29.285 16.0877C29.242 15.8139 29.1707 15.5454 29.0722 15.2863C28.9602 14.992 28.8058 14.7222 28.6309 14.4165L23.8373 6.0277C23.7889 5.93917 23.731 5.85722 23.6652 5.78298C23.416 5.50136 23.0556 5.33464 22.6712 5.33334L22.6667 5.33333C22.5841 5.33333 22.5025 5.34098 22.4229 5.35578L16.0001 6.42625V1.33333ZM25.7025 14.6667L22.6667 9.35409L19.631 14.6667H25.7025ZM9.70249 17.3333L6.66672 12.0208L3.63096 17.3333H9.70249Z" fill="var(--fill-0, #A7FF5B)" fill-rule="evenodd" id="Solid"/>
</svg>