<?xml version="1.0" encoding="utf-8"?>
<svg xmlns="http://www.w3.org/2000/svg" fill="none" height="100%" overflow="visible" preserveAspectRatio="none" style="display: block;" viewBox="0 0 24.0011 29.3333" width="100%">
<path clip-rule="evenodd" d="M0.0599903 24.3358C0.121224 25.0852 0.252643 25.7742 0.582364 26.4213C1.09369 27.4248 1.90958 28.2407 2.91312 28.752C3.56023 29.0818 4.24917 29.2132 4.99863 29.2744C5.72022 29.3334 6.60602 29.3334 7.6793 29.3333H18.4525C19.1553 29.3334 19.7617 29.3334 20.2611 29.2926C20.7882 29.2495 21.3125 29.1544 21.817 28.8974C22.5697 28.5139 23.1816 27.9019 23.5651 27.1493C23.8221 26.6448 23.9172 26.1205 23.9603 25.5934C23.9969 25.1457 24.0011 24.6124 24.0011 24C24.0011 17.8495 24.0011 11.6991 24.0011 5.54858C24.0011 4.84573 24.0011 4.23939 23.9603 3.73997C23.9172 3.21284 23.8221 2.68855 23.5651 2.18404C23.1816 1.43139 22.5697 0.819471 21.817 0.435978C21.3125 0.178919 20.7882 0.0838308 20.2611 0.0407628C19.7617 -4.11471e-05 19.1554 -2.15992e-05 18.4525 1.06275e-06H7.67933C6.60608 -1.41283e-05 5.72021 -2.66681e-05 4.99863 0.0589284C4.24917 0.120162 3.56023 0.251581 2.91312 0.581302C1.90958 1.09263 1.09369 1.90852 0.582364 2.91205C0.252643 3.55917 0.121224 4.24811 0.0599903 4.99757C0.00103431 5.71916 0.00104787 6.60497 0.0010643 7.67825V21.6551C0.0010506 22.5497 -0.0128202 23.4446 0.0599903 24.3358ZM21.3025 25.3762C21.2729 25.7384 21.2227 25.8727 21.1891 25.9387C21.0612 26.1895 20.8573 26.3935 20.6064 26.5213C20.5405 26.5549 20.4062 26.6052 20.044 26.6348C19.6662 26.6656 19.1698 26.6667 18.4011 26.6667H7.7344C6.59229 26.6667 5.8159 26.6656 5.21578 26.6166C4.63123 26.5688 4.33229 26.4823 4.12376 26.376C3.62199 26.1204 3.21404 25.7124 2.95838 25.2106C2.71948 24.7418 2.60135 24.3358 2.69012 23.6529C2.86025 22.3441 3.97928 21.3333 5.3344 21.3333H21.3344C21.3344 22.6734 21.4117 24.0394 21.3025 25.3762Z" fill="var(--fill-0, #FEE300)" fill-rule="evenodd" id="Solid"/>
</svg>