<?xml version="1.0" encoding="utf-8"?>
<svg xmlns="http://www.w3.org/2000/svg" fill="none" height="100%" overflow="visible" preserveAspectRatio="none" style="display: block;" viewBox="0 0 29.3333 26.6667" width="100%">
<path d="M8.83298 0.292224C8.25796 -0.167789 7.4189 -0.0745602 6.95889 0.500456C6.49888 1.07547 6.59211 1.91453 7.16712 2.37454L10.8656 5.33333H7.67827C6.60498 5.33332 5.71916 5.3333 4.99757 5.39226C4.2481 5.45349 3.55917 5.58491 2.91205 5.91463C1.90852 6.42596 1.09262 7.24185 0.5813 8.24539C0.251579 8.8925 0.12016 9.58144 0.0589265 10.3309C-2.9544e-05 11.0525 -1.594e-05 11.9383 5.49055e-07 13.0116V18.9884C-1.594e-05 20.0617 -2.9544e-05 20.9475 0.0589265 21.6691C0.12016 22.4186 0.251579 23.1075 0.5813 23.7546C1.09262 24.7581 1.90852 25.574 2.91205 26.0854C3.55917 26.4151 4.2481 26.5465 4.99757 26.6077C5.71916 26.6667 6.60498 26.6667 7.67827 26.6667H21.655C22.7283 26.6667 23.6142 26.6667 24.3358 26.6077C25.0852 26.5465 25.7742 26.4151 26.4213 26.0854C27.4248 25.574 28.2407 24.7581 28.752 23.7546C29.0818 23.1075 29.2132 22.4186 29.2744 21.6691C29.3334 20.9475 29.3334 20.0617 29.3333 18.9884V13.0116C29.3334 11.9383 29.3334 11.0525 29.2744 10.3309C29.2132 9.58144 29.0818 8.8925 28.752 8.24539C28.2407 7.24185 27.4248 6.42596 26.4213 5.91463C25.7742 5.58491 25.0852 5.45349 24.3358 5.39226C23.6142 5.3333 22.7284 5.33332 21.6551 5.33333H18.4678L22.1663 2.37454C22.7413 1.91453 22.8346 1.07547 22.3745 0.500456C21.9145 -0.0745602 21.0755 -0.167789 20.5005 0.292224L14.6667 4.95922L8.83298 0.292224Z" fill="var(--fill-0, #00DBF1)" id="Solid"/>
</svg>