<?xml version="1.0" encoding="utf-8"?>
<svg xmlns="http://www.w3.org/2000/svg" fill="none" height="100%" overflow="visible" preserveAspectRatio="none" style="display: block;" viewBox="0 0 120 96" width="100%">
<g id="hej_logo">
<path d="M23.7682 75.1019C22.8325 74.4059 22.0205 73.5116 21.4004 72.4372L1.1817 37.405C-1.25094 33.1901 0.192701 27.8005 4.40615 25.367L13.5567 20.082C17.7702 17.6485 23.1579 19.0927 25.5906 23.3076L26.5602 24.9876C26.9388 24.7389 27.3263 24.5002 27.7221 24.2716C30.738 22.5297 34.0228 21.468 37.5141 21.276C40.8121 21.063 43.94 21.771 46.7898 23.2233C48.0449 21.1155 49.6271 19.2131 51.504 17.5292C54.784 14.5866 58.7043 12.5956 63.0545 11.4295C67.0318 10.3634 71.0652 10.1415 75.0668 10.8821C79.2854 11.6454 83.0618 13.4936 86.2535 16.3564C87.2237 17.2181 88.0936 18.1564 88.8698 19.1598C89.1095 18.6814 89.3896 18.2314 89.7048 17.8131C89.0092 15.4349 88.9788 12.9092 89.656 10.381C90.71 6.44599 93.2455 3.37362 96.8509 1.55735C100.601 -0.331682 104.596 -0.32913 108.232 0.645476C111.759 1.59089 115.182 3.47224 117.531 6.82242C119.905 10.2095 120.57 14.196 119.513 18.1441C118.826 20.7067 117.535 22.9585 115.691 24.7448C115.831 25.8468 115.764 26.9938 115.459 28.1331L108.008 55.9485C107.208 58.937 105.935 61.6886 104.131 64.0448C104.518 65.6079 104.392 67.3639 103.546 69.1558C100.819 74.9311 97.2751 79.874 93.0209 83.9119C85.5045 91.0461 76.4133 94.7475 67.3774 95.7297C51.6876 97.4351 35.0776 90.9888 25.4645 78.7261C24.5821 77.6005 24.0285 76.3629 23.7682 75.1019Z" fill="var(--fill-0, #111111)" id="bg"/>
<path d="M31.7815 72.2595C31.1375 72.6315 30.9531 73.4795 31.4121 74.0649C39.2934 84.1185 53.2675 89.6661 66.5675 88.2204C74.1062 87.4009 81.6145 84.3314 87.8294 78.4324C91.3607 75.0807 94.369 70.917 96.7246 65.9292C96.775 65.8225 96.6553 65.7144 96.5531 65.7734C92.4908 68.1196 87.8097 68.3521 82.9028 67.0368C82.5806 66.9505 82.2617 66.8593 81.9463 66.7632C81.4418 66.6096 80.8929 66.7692 80.5481 67.1683C79.9923 67.8114 79.4225 68.4069 78.8425 68.9574C74.8766 72.7216 70.1048 74.6976 65.1571 75.2355C56.4462 76.1823 47.7343 72.6639 42.6816 67.1687C42.2659 66.7166 41.5935 66.5926 41.0617 66.8997L31.7815 72.2595Z" fill="var(--fill-0, #FFD600)" id="line"/>
<g id="hej">
<path d="M44.2612 30.4617C45.176 31.0104 46.0523 31.7241 46.89 32.6029C47.1248 32.8493 47.235 33.186 47.2202 33.5261C47.1303 35.5924 47.3788 37.6898 47.9443 39.8008C48.9274 43.4713 50.7781 46.6235 53.5081 49.1486L53.5178 49.1576L53.5276 49.1666C54.4134 49.9745 55.3597 50.6886 56.3624 51.3107C57.2301 51.849 57.2816 53.1667 56.3974 53.6773L48.6079 58.1762C48.006 58.5238 47.2363 58.3175 46.8888 57.7154L39.616 45.1141C38.6319 43.409 37.6364 42.3791 36.6296 42.0244C35.6034 41.6363 34.5723 41.7415 33.5362 42.3399C32.7675 42.7838 32.155 43.3828 31.6988 44.1366C31.2568 44.8377 31.0667 45.7053 31.1288 46.7394C31.2243 47.7542 31.6676 48.9469 32.4587 50.3178L39.2684 62.1166C39.6159 62.7187 39.4097 63.4886 38.8077 63.8363L29.6571 69.1212C29.0552 69.4689 28.2856 69.2626 27.938 68.6604L7.7193 33.6282C7.37178 33.0261 7.57801 32.2561 8.17993 31.9085L17.3305 26.6236C17.9324 26.2759 18.7021 26.4822 19.0496 27.0843L24.1927 35.9956C24.6379 36.7669 25.8298 36.6705 26.2768 35.9003C27.5169 33.8022 29.2566 32.1064 31.4959 30.8131C33.6015 29.597 35.7575 28.9313 37.9638 28.8161C40.1508 28.6675 42.2499 29.2161 44.2612 30.4617Z" fill="var(--fill-0, white)"/>
<path d="M74.4531 50.1872C70.7253 51.1865 67.2787 51.3709 64.1132 50.7405C60.985 50.1002 58.3371 48.7915 56.1694 46.8145C53.9917 44.8003 52.4983 42.2828 51.6893 39.2622C50.8602 36.167 50.8902 33.2213 51.7794 30.4249C52.6685 27.6286 54.2567 25.2045 56.5438 23.1525C58.831 21.1006 61.6521 19.625 65.0072 18.7257C67.9894 17.9263 70.8892 17.7885 73.7065 18.3124C76.5611 18.8262 79.0672 20.053 81.2249 21.9927C83.1574 23.7044 84.5884 26.0198 85.518 28.9389C85.7011 29.5138 85.4179 30.1271 84.8754 30.3908L64.9093 40.0961C64.1981 40.4417 63.3483 40.0535 63.1436 39.2896L62.1582 35.6105C62.0024 35.029 62.28 34.4185 62.8205 34.1539L73.6427 28.8553C74.4001 28.4845 75.121 29.4194 74.5702 30.0581C74.1638 30.5294 73.3789 30.3535 73.086 29.8043C72.8652 29.3902 72.6014 29.0231 72.2944 28.7031C71.7119 28.0199 70.9879 27.5544 70.1225 27.3068C69.2943 27.0491 68.377 27.0552 67.3705 27.325C66.3267 27.6048 65.4596 28.097 64.7694 28.8016C64.1064 29.4589 63.6811 30.3323 63.4934 31.4218C63.3331 32.464 63.4477 33.7123 63.8373 35.1667C64.3167 36.9567 64.9436 38.3274 65.7179 39.279C66.4822 40.1933 67.4139 40.7629 68.513 40.9879C69.6121 41.2129 70.8885 41.1305 72.3424 40.7408C73.759 40.3611 74.8647 39.8649 75.6595 39.2522C76.2508 38.8096 76.8357 38.2679 77.4142 37.6269C77.8334 37.1625 78.5186 37.0285 79.059 37.3436L85.4547 41.0736C86.0381 41.4138 86.2539 42.1576 85.8888 42.7259C84.8833 44.2912 83.571 45.6686 81.952 46.8583C79.9723 48.2682 77.4727 49.3779 74.4531 50.1872Z" fill="var(--fill-0, white)"/>
<path d="M83.8725 63.3887C82.3813 62.989 80.9997 62.4788 79.7276 61.858C78.8302 61.4257 78.0432 60.9667 77.3666 60.4809C76.8541 60.113 76.7678 59.4042 77.1204 58.8809L81.0461 53.0546C81.4807 52.4095 82.3891 52.3226 83.0636 52.7098C83.5209 52.9724 84.0109 53.1738 84.5334 53.3138C85.279 53.5137 85.969 53.3989 86.6034 52.9694C87.2751 52.5499 87.7758 51.7249 88.1054 50.4942L95.526 22.7907C95.7059 22.1192 96.3959 21.7206 97.0673 21.9006L107.273 24.6362C107.945 24.8162 108.343 25.5065 108.163 26.1781L100.713 53.9935C99.654 57.9464 97.6357 60.7828 94.6579 62.5026C91.6801 64.2225 88.0849 64.5178 83.8725 63.3887ZM102.83 20.8072C100.518 20.1876 98.8379 19.0777 97.7882 17.4774C96.7386 15.8771 96.4584 14.1633 96.9479 12.336C97.4373 10.5087 98.5365 9.1646 100.245 8.30369C101.954 7.44279 103.964 7.32209 106.276 7.94161C108.587 8.56113 110.277 9.63376 111.347 11.1595C112.417 12.6853 112.707 14.3618 112.217 16.1891C111.698 18.1282 110.579 19.5469 108.86 20.4451C107.151 21.306 105.141 21.4267 102.83 20.8072Z" fill="var(--fill-0, white)"/>
</g>
</g>
</svg>