<?xml version="1.0" encoding="utf-8"?>
<svg xmlns="http://www.w3.org/2000/svg" fill="none" height="100%" overflow="visible" preserveAspectRatio="none" style="display: block;" viewBox="0 0 29.3333 29.3333" width="100%">
<path clip-rule="evenodd" d="M13.5176 0.0226006C13.8224 0.0475029 14.1821 0.10626 14.544 0.290656C15.0457 0.546318 15.4537 0.954267 15.7094 1.45603C15.8937 1.81793 15.9525 2.17758 15.9774 2.48237C15.9823 2.54165 15.9861 2.60321 15.9891 2.66667L21.6551 2.66667C22.7284 2.66665 23.6142 2.66664 24.3358 2.72559C25.0852 2.78683 25.7742 2.91825 26.4213 3.24797C27.4248 3.75929 28.2407 4.57519 28.752 5.57872C29.0818 6.22583 29.2132 6.91477 29.2744 7.66423C29.3334 8.38583 29.3334 9.27166 29.3333 10.345V21.655C29.3334 22.7283 29.3334 23.6142 29.2744 24.3358C29.2132 25.0852 29.0818 25.7742 28.752 26.4213C28.2407 27.4248 27.4248 28.2407 26.4213 28.752C25.7742 29.0818 25.0852 29.2132 24.3358 29.2744C23.6142 29.3334 22.7284 29.3334 21.6551 29.3333L16.7575 29.3333C16.421 29.3334 16.0932 29.3334 15.8157 29.3107C15.5109 29.2858 15.1513 29.2271 14.7894 29.0427C14.2876 28.787 13.8797 28.3791 13.624 27.8773C13.4396 27.5154 13.3808 27.1558 13.3559 26.851C13.3511 26.7917 13.3473 26.7301 13.3443 26.6667H7.67824C6.60496 26.6667 5.71915 26.6667 4.99757 26.6078C4.2481 26.5465 3.55917 26.4151 2.91205 26.0854C1.90852 25.5741 1.09262 24.7582 0.5813 23.7546C0.251579 23.1075 0.12016 22.4186 0.0589265 21.6691C-2.9544e-05 20.9475 -1.594e-05 20.0617 5.49055e-07 18.9884V7.67827C-1.594e-05 6.60499 -2.9544e-05 5.71916 0.0589265 4.99757C0.12016 4.24811 0.251579 3.55917 0.5813 2.91206C1.09262 1.90853 1.90852 1.09263 2.91205 0.581305C3.55917 0.251584 4.2481 0.120165 4.99757 0.0589317C5.71916 -2.47955e-05 6.60498 -1.08077e-05 7.67827 6.19947e-06L12.5759 3.33845e-06C12.9124 -3.65562e-05 13.2401 -7.54098e-05 13.5176 0.0226006ZM9.33333 2.66667V5.33333H13.3333V2.66667L9.33333 2.66667ZM5.21472 2.71674C5.60617 2.68476 6.07263 2.6732 6.66667 2.66902V5.33333H2.70782C2.7106 5.29303 2.71357 5.25351 2.71674 5.21472C2.7645 4.63017 2.85106 4.33123 2.95732 4.1227C3.21298 3.62093 3.62093 3.21299 4.12269 2.95732C4.33123 2.85107 4.63017 2.7645 5.21472 2.71674ZM9.33333 21.3333H13.3333L13.3333 24L9.33333 24V21.3333ZM6.66667 21.3333V23.9977C6.07263 23.9935 5.60617 23.9819 5.21472 23.9499C4.63017 23.9022 4.33123 23.8156 4.12269 23.7094C3.62093 23.4537 3.21298 23.0457 2.95732 22.544C2.85106 22.3354 2.7645 22.0365 2.71674 21.452C2.71357 21.4132 2.7106 21.3736 2.70782 21.3333H6.66667ZM16 24V26.6667H20V24H16ZM22.6667 26.6643C23.2607 26.6601 23.7272 26.6486 24.1186 26.6166C24.7032 26.5688 25.0021 26.4823 25.2106 26.376C25.7124 26.1204 26.1204 25.7124 26.376 25.2106C26.4823 25.0021 26.5688 24.7032 26.6166 24.1186C26.6198 24.0798 26.6227 24.0403 26.6255 24H22.6667V26.6643ZM16 8H20V5.33333L16 5.33333L16 8ZM22.6667 5.33568V8H26.6255C26.6227 7.95969 26.6198 7.92017 26.6166 7.88139C26.5688 7.29683 26.4823 6.99789 26.376 6.78936C26.1204 6.28759 25.7124 5.87965 25.2106 5.62398C25.0021 5.51773 24.7032 5.43116 24.1186 5.3834C23.7272 5.35142 23.2607 5.33986 22.6667 5.33568Z" fill="var(--fill-0, #FEE300)" fill-rule="evenodd" id="Solid"/>
</svg>