<?xml version="1.0" encoding="utf-8"?>
<svg xmlns="http://www.w3.org/2000/svg" fill="none" height="100%" overflow="visible" preserveAspectRatio="none" style="display: block;" viewBox="0 0 29.1848 29.3333" width="100%">
<g id="Solid">
<path d="M1.33333 2.66668H2.84361L3.44134 6.85082L4.84962 17.2017C4.93316 17.8159 5.00578 18.3497 5.10023 18.7888C5.20058 19.2553 5.34408 19.7124 5.61866 20.1447C6.03201 20.7955 6.62462 21.3129 7.32517 21.6348C7.7905 21.8485 8.26277 21.9291 8.73854 21.9657C9.18637 22.0001 9.72514 22 10.345 22H21.8481C22.4377 22 22.9515 22.0001 23.38 21.968C23.8362 21.934 24.2889 21.8589 24.7386 21.6608C25.4178 21.3618 26.0004 20.8797 26.4212 20.2685C26.6999 19.8637 26.8584 19.4332 26.9772 18.9913C27.0888 18.5764 27.1849 18.0717 27.2952 17.4926L29.0752 8.14776C29.1107 7.96167 29.1517 7.74699 29.1709 7.55767C29.1926 7.34469 29.2051 7.02095 29.0802 6.66735C28.9224 6.22043 28.611 5.84409 28.2015 5.60542C27.8775 5.41659 27.5571 5.36831 27.3438 5.34972C27.1543 5.3332 26.9357 5.33327 26.7463 5.33334L5.9183 5.33335L5.44686 2.03326C5.42726 1.89567 5.40333 1.72766 5.37054 1.57983C5.33192 1.40575 5.2626 1.16537 5.10499 0.919796C4.89778 0.596915 4.60207 0.340446 4.25313 0.180976C3.98773 0.0596869 3.73996 0.0250526 3.56217 0.011444C3.41119 -0.000112814 3.24149 -4.66316e-05 3.10251 7.56861e-06L1.33333 1.48815e-05C0.596954 1.48815e-05 0 0.596969 0 1.33335C0 2.06973 0.596954 2.66668 1.33333 2.66668Z" fill="var(--fill-0, #00DBF1)"/>
<path d="M8 26.6667C8 25.1939 9.19391 24 10.6667 24C12.1394 24 13.3333 25.1939 13.3333 26.6667C13.3333 28.1394 12.1394 29.3333 10.6667 29.3333C9.19391 29.3333 8 28.1394 8 26.6667Z" fill="var(--fill-0, #00DBF1)"/>
<path d="M18.6667 26.6667C18.6667 25.1939 19.8606 24 21.3333 24C22.8061 24 24 25.1939 24 26.6667C24 28.1394 22.8061 29.3333 21.3333 29.3333C19.8606 29.3333 18.6667 28.1394 18.6667 26.6667Z" fill="var(--fill-0, #00DBF1)"/>
</g>
</svg>