<?xml version="1.0" encoding="utf-8"?>
<svg xmlns="http://www.w3.org/2000/svg" fill="none" height="100%" overflow="visible" preserveAspectRatio="none" style="display: block;" viewBox="0 0 29.3333 29.3333" width="100%">
<path clip-rule="evenodd" d="M14.6667 0C6.56649 0 0 6.56649 0 14.6667C0 22.7668 6.56649 29.3333 14.6667 29.3333C22.7668 29.3333 29.3333 22.7668 29.3333 14.6667C29.3333 6.56649 22.7668 0 14.6667 0ZM16.6667 10.6667C16.6667 9.5621 17.5621 8.66667 18.6667 8.66667C19.7712 8.66667 20.6667 9.5621 20.6667 10.6667C20.6667 11.7712 19.7712 12.6667 18.6667 12.6667C17.5621 12.6667 16.6667 11.7712 16.6667 10.6667ZM8 18.6667C8 17.9303 8.59695 17.3333 9.33333 17.3333H20C20.7364 17.3333 21.3333 17.9303 21.3333 18.6667C21.3333 19.403 20.7364 20 20 20H9.33333C8.59695 20 8 19.403 8 18.6667ZM8.66667 10.6667C8.66667 9.5621 9.5621 8.66667 10.6667 8.66667C11.7712 8.66667 12.6667 9.5621 12.6667 10.6667C12.6667 11.7712 11.7712 12.6667 10.6667 12.6667C9.5621 12.6667 8.66667 11.7712 8.66667 10.6667Z" fill="var(--fill-0, #00DBF1)" fill-rule="evenodd" id="Solid"/>
</svg>