<?xml version="1.0" encoding="utf-8"?>
<svg xmlns="http://www.w3.org/2000/svg" fill="none" height="100%" overflow="visible" preserveAspectRatio="none" style="display: block;" viewBox="0 0 26.6667 26.6341" width="100%">
<path clip-rule="evenodd" d="M13.1004 0.0101942C13.2554 -0.00339808 13.4113 -0.00339808 13.5663 0.0101942C13.7446 0.0258303 13.9146 0.0638749 14.0496 0.0940774L23.9876 2.30256C24.2548 2.3619 24.5204 2.4209 24.745 2.4884C24.9956 2.56373 25.2809 2.67319 25.5588 2.87339C25.9512 3.15613 26.2594 3.5403 26.4503 3.98476C26.5854 4.29945 26.6304 4.60165 26.6496 4.86267C26.6667 5.09654 26.6667 5.36865 26.6667 5.64238V7.21018C26.6667 7.54659 26.6668 7.87432 26.6441 8.15178C26.6192 8.45657 26.5604 8.81622 26.376 9.17811C26.1204 9.67988 25.7124 10.0878 25.2106 10.3435C24.8487 10.5279 24.4891 10.5866 24.1843 10.6115C24.125 10.6164 24.0635 10.6202 24 10.6232V18.6451C24.0635 18.6481 24.125 18.6519 24.1843 18.6567C24.4891 18.6816 24.8487 18.7404 25.2106 18.9248C25.7124 19.1804 26.1204 19.5884 26.376 20.0901C26.5604 20.452 26.6192 20.8117 26.6441 21.1165C26.6668 21.3939 26.6667 21.7217 26.6667 22.0581V23.2103C26.6667 23.5466 26.6668 23.8743 26.6441 24.1518C26.6192 24.4566 26.5604 24.8162 26.376 25.1781C26.1204 25.6799 25.7124 26.0878 25.2106 26.3435C24.8487 26.5279 24.4891 26.5866 24.1843 26.6115C23.9068 26.6342 23.579 26.6342 23.2425 26.6341H3.42414C3.08763 26.6342 2.75991 26.6342 2.48237 26.6115C2.17758 26.5866 1.81793 26.5279 1.45603 26.3435C0.954266 26.0878 0.546318 25.6799 0.290656 25.1781C0.10626 24.8162 0.0475029 24.4565 0.0226005 24.1518C-7.59537e-05 23.8742 -3.66946e-05 23.5465 3.35974e-06 23.21L3.51868e-06 22.0583C-3.65356e-05 21.7217 -7.56358e-05 21.394 0.0226007 21.1165C0.0475031 20.8117 0.10626 20.452 0.290656 20.0901C0.546319 19.5884 0.954267 19.1804 1.45603 18.9248C1.81793 18.7404 2.17758 18.6816 2.48237 18.6567C2.54165 18.6519 2.60321 18.6481 2.66667 18.6451V10.6232C2.60321 10.6202 2.54165 10.6164 2.48237 10.6115C2.17758 10.5866 1.81793 10.5279 1.45603 10.3435C0.954266 10.0878 0.546318 9.67988 0.290656 9.17811C0.10626 8.81622 0.0475029 8.45657 0.0226005 8.15178C-7.57029e-05 7.87424 -3.66941e-05 7.54651 3.35974e-06 7.21L3.99552e-06 5.64237C-2.98599e-05 5.36864 -6.3397e-05 5.09654 0.0171135 4.86267C0.036284 4.60165 0.0812587 4.29945 0.216405 3.98476C0.407279 3.5403 0.715448 3.15613 1.10791 2.87339C1.38579 2.67319 1.67104 2.56373 1.92169 2.4884C2.14626 2.42089 2.4119 2.3619 2.67911 2.30255L12.6171 0.094077C12.7521 0.0638747 12.9221 0.0258302 13.1004 0.0101942ZM5.33333 10.6341V18.6341H8.66667V10.6341H5.33333ZM11.3333 10.6341V18.6341H15.3333V10.6341L11.3333 10.6341ZM18 10.6341V18.6341H21.3333V10.6341H18Z" fill="var(--fill-0, #FF5903)" fill-rule="evenodd" id="Solid"/>
</svg>