<?xml version="1.0" encoding="utf-8"?>
<svg xmlns="http://www.w3.org/2000/svg" fill="none" height="100%" overflow="visible" preserveAspectRatio="none" style="display: block;" viewBox="0 0 29.3334 24.0002" width="100%">
<g id="Solid">
<path d="M10.4188 8.73889e-05C9.18191 -0.000747871 8.24941 -0.00137762 7.39981 0.29167C6.65248 0.549442 5.9718 0.970127 5.40702 1.52328C4.76496 2.15213 4.3485 2.98647 3.79607 4.09318C2.95151 5.78236 2.07304 7.45948 1.23978 9.15615C0.998121 9.64821 0.877292 9.89424 0.908905 10.1011C0.936242 10.2799 1.03851 10.4441 1.18699 10.5474C1.3587 10.667 1.63596 10.667 2.1905 10.667H27.1429C27.6975 10.667 27.9747 10.667 28.1464 10.5474C28.2949 10.4441 28.3972 10.2799 28.4245 10.1011C28.4561 9.89424 28.3353 9.6482 28.0936 9.15614C27.2604 7.45948 26.3819 5.78237 25.5374 4.09321C24.985 2.98648 24.5685 2.15214 23.9264 1.52328C23.3616 0.970127 22.681 0.549442 21.9336 0.29167C21.084 -0.00137762 20.1515 -0.000747871 18.9146 8.73889e-05H10.4188Z" fill="var(--fill-0, #A7FF5B)"/>
<path clip-rule="evenodd" d="M29.3334 15.4665C29.3335 14.7202 29.3335 14.347 29.1882 14.0617C29.0604 13.8109 28.8564 13.6068 28.6055 13.479C28.3203 13.3337 27.9471 13.3337 27.2006 13.3337H2.13283C1.38637 13.3337 1.01314 13.3337 0.72791 13.479C0.477071 13.6068 0.27301 13.8109 0.145216 14.0617C-9.951e-05 14.347 -6.53736e-05 14.7201 2.91296e-06 15.4665C2.90036e-05 15.7516 5.18238e-05 16.0368 5.31734e-05 16.3219C3.61662e-05 17.3952 2.21779e-05 18.281 0.0589786 19.0026C0.120212 19.7521 0.251631 20.441 0.581352 21.0881C1.09268 22.0917 1.90857 22.9076 2.9121 23.4189C3.55922 23.7486 4.24816 23.88 4.99762 23.9413C5.71921 24.0002 6.60501 24.0002 7.67829 24.0002H21.6552C22.7284 24.0002 23.6142 24.0002 24.3358 23.9413C25.0853 23.88 25.7742 23.7486 26.4213 23.4189C27.4249 22.9076 28.2408 22.0917 28.7521 21.0881C29.0818 20.441 29.2132 19.7521 29.2745 19.0026C29.3334 18.281 29.3334 17.3952 29.3334 16.3219C29.3334 16.0368 29.3334 15.7516 29.3334 15.4665ZM6.66669 16.0003C5.93031 16.0003 5.33336 16.5973 5.33336 17.3337C5.33336 18.07 5.93031 18.667 6.66669 18.667H12C12.7364 18.667 13.3334 18.07 13.3334 17.3337C13.3334 16.5973 12.7364 16.0003 12 16.0003H6.66669Z" fill="var(--fill-0, #A7FF5B)" fill-rule="evenodd"/>
</g>
</svg>