<?xml version="1.0" encoding="utf-8"?>
<svg xmlns="http://www.w3.org/2000/svg" fill="none" height="100%" overflow="visible" preserveAspectRatio="xMidYMid meet" style="display: block;" viewBox="0 0 34.0975 23.5714" width="100%">
<path clip-rule="evenodd" d="M17.0315 0C17.0315 0 27.681 2.04359e-06 30.3272 0.712309C31.05 0.905368 31.7089 1.28212 32.2384 1.80475C32.7678 2.32735 33.1493 2.97764 33.3449 3.69103C34.4711 8.16571 34.2111 15.233 33.367 19.8804C33.1714 20.5938 32.7898 21.2441 32.2604 21.7667C31.731 22.2893 31.072 22.6661 30.3492 22.8591C27.7032 23.5714 17.0532 23.5714 17.0532 23.5714C17.0076 23.5714 6.39785 23.5699 3.75751 22.8591C3.03476 22.6661 2.37575 22.2893 1.8463 21.7667C1.31692 21.2441 0.935366 20.5938 0.739791 19.8804C-0.392968 15.4252 -0.0823131 8.35366 0.71805 3.71277C0.913635 2.99931 1.29509 2.3488 1.82456 1.82617C2.35402 1.30355 3.013 0.927107 3.73577 0.73405C6.37984 0.0222532 17.0157 3.22855e-05 17.0315 0ZM13.6426 16.8374L22.4774 11.7864L13.6426 6.73529V16.8374Z" fill="var(--fill-0, #F4F2EA)" fill-rule="evenodd" id="youtube"/>
</svg>
